<?xml version="1.0" encoding="UTF-8"?>
<svg version="1.1" xmlns="http://www.w3.org/2000/svg" width="180" height="180">
<path d="M0 0 C0.96293976 -0.00426498 1.92587952 -0.00852997 2.91799927 -0.01292419 C3.96278946 -0.01247101 5.00757965 -0.01201782 6.08403015 -0.0115509 C7.19357056 -0.01490952 8.30311096 -0.01826813 9.4462738 -0.02172852 C13.11419291 -0.03122725 16.78206631 -0.03318113 20.44999695 -0.03425598 C23.00201435 -0.03746942 25.55403157 -0.04083356 28.10604858 -0.04434204 C33.45662436 -0.0503307 38.80718313 -0.05222507 44.15776062 -0.05158997 C50.32833079 -0.05098971 56.49881339 -0.06153355 62.66936141 -0.07733363 C68.62006323 -0.09202392 74.57073849 -0.09557696 80.52145958 -0.09498024 C83.04636683 -0.09615903 85.57127475 -0.10057515 88.09617043 -0.10831261 C91.63125965 -0.11813098 95.16612467 -0.11522693 98.70121765 -0.10920715 C99.73993515 -0.11482666 100.77865265 -0.12044617 101.84884644 -0.12623596 C109.2916002 -0.09409825 115.91194952 0.68294517 122.5867157 4.25871277 C124.3192157 5.18683777 124.3192157 5.18683777 126.0867157 6.13371277 C126.0867157 6.79371277 126.0867157 7.45371277 126.0867157 8.13371277 C126.7260907 8.40183777 127.3654657 8.66996277 128.0242157 8.94621277 C130.0867157 10.13371277 130.0867157 10.13371277 131.0867157 13.13371277 C131.7467157 13.13371277 132.4067157 13.13371277 133.0867157 13.13371277 C139.27635553 23.37863387 141.23365026 32.31015366 141.24784851 44.24723816 C141.25281342 45.25135742 141.25777832 46.25547668 141.26289368 47.2900238 C141.27746742 50.6038126 141.28431049 53.91755347 141.2898407 57.23136902 C141.2955975 59.54577637 141.30135516 61.86018372 141.30711365 64.17459106 C141.31761102 69.02742229 141.32346149 73.88023702 141.32695007 78.733078 C141.33242225 84.92414144 141.35642853 91.11498357 141.38492203 97.30597782 C141.40363241 102.0889345 141.40875854 106.87183885 141.41028595 111.65482903 C141.41329569 113.93557885 141.42126685 116.21632812 141.43447113 118.4970417 C141.60872964 150.9185254 141.60872964 150.9185254 130.0476532 163.32121277 C122.99216655 170.10245789 114.30953586 174.22856789 104.43449402 174.28088379 C103.03868103 174.29161674 103.03868103 174.29161674 101.6146698 174.30256653 C100.60062073 174.30525543 99.58657166 174.30794434 98.54179382 174.31071472 C97.46808533 174.31728592 96.39437683 174.32385712 95.28813171 174.33062744 C91.73140898 174.35035107 88.17472852 174.36202319 84.6179657 174.37199402 C83.40096481 174.37606955 82.18396393 174.38014507 80.93008423 174.3843441 C74.48424957 174.40520433 68.03843618 174.41950432 61.59257507 174.42887878 C54.95291396 174.43891483 48.31355821 174.47429833 41.6740036 174.51405048 C36.55395408 174.54027298 31.43398405 174.54857582 26.31387329 174.55216026 C23.86761203 174.55701436 21.42135403 174.56859448 18.97515869 174.58719826 C15.53877065 174.61170085 12.10324355 174.61060359 8.66679382 174.60368347 C7.17001099 174.62289856 7.17001099 174.62289856 5.64299011 174.64250183 C-5.72292919 174.55969539 -16.51782803 170.97721863 -24.9132843 163.13371277 C-32.81336988 153.41511693 -35.37371893 143.31282447 -35.31733704 130.99943542 C-35.32420029 129.93460434 -35.33106354 128.86977325 -35.33813477 127.77267456 C-35.3563151 124.28090269 -35.35257742 120.78958394 -35.34687805 117.29777527 C-35.35144423 114.8521663 -35.3567511 112.40655861 -35.36276245 109.96095276 C-35.37167654 104.84530919 -35.36928994 99.72982187 -35.35932922 94.61418152 C-35.34784561 88.08224237 -35.36805121 81.55084432 -35.39724636 75.01897621 C-35.41565741 69.97096878 -35.41530602 64.92308983 -35.40960884 59.87505722 C-35.40945621 57.46788652 -35.41545216 55.06070679 -35.42790031 52.65356827 C-35.53522596 28.49789879 -35.53522596 28.49789879 -30.9132843 19.13371277 C-30.54009567 18.377164 -30.16690704 17.62061523 -29.78240967 16.84114075 C-29.4955983 16.27768951 -29.20878693 15.71423828 -28.9132843 15.13371277 C-28.2532843 15.13371277 -27.5932843 15.13371277 -26.9132843 15.13371277 C-26.65933899 14.54718933 -26.40539368 13.96066589 -26.14375305 13.35636902 C-22.72952138 7.18907435 -16.41732891 3.34263358 -9.9132843 1.13371277 C-6.55326946 0.34695559 -3.44733304 0.00693499 0 0 Z " fill="#4FB966" transform="translate(36.91328430175781,3.8662872314453125)"/>
<path d="M0 0 C2.78515625 -0.328125 2.78515625 -0.328125 6.0625 -0.25 C7.14660156 -0.23453125 8.23070312 -0.2190625 9.34765625 -0.203125 C12 0 12 0 13 1 C13.53249067 8.05550139 11.89537096 14.23081801 10 21 C11.47968324 20.85950482 12.95874516 20.71245174 14.4375 20.5625 C15.26121094 20.48128906 16.08492187 20.40007813 16.93359375 20.31640625 C18.98662025 20.21069185 18.98662025 20.21069185 20 19 C20.18596387 17.12855409 20.3233776 15.25219696 20.4375 13.375 C20.78910273 8.62269213 21.46594422 4.49989695 23 0 C25.31243792 -0.02685412 27.6249627 -0.04632841 29.9375 -0.0625 C31.22527344 -0.07410156 32.51304688 -0.08570313 33.83984375 -0.09765625 C37 0 37 0 38 1 C38.04092937 3.33297433 38.04241723 5.66705225 38 8 C37.34 8 36.68 8 36 8 C36.01160156 8.60328125 36.02320312 9.2065625 36.03515625 9.828125 C36.04417969 10.62734375 36.05320312 11.4265625 36.0625 12.25 C36.07410156 13.03890625 36.08570312 13.8278125 36.09765625 14.640625 C36 17 36 17 35 21 C41.93 21 48.86 21 56 21 C56 28.32436327 55.97735264 32.40882455 54 39 C53.5359375 40.670625 53.5359375 40.670625 53.0625 42.375 C52 45 52 45 49 47 C46.81697083 47.2784729 46.81697083 47.2784729 44.25317383 47.31884766 C42.81201958 47.34865219 42.81201958 47.34865219 41.3417511 47.37905884 C40.30729355 47.39061005 39.272836 47.40216125 38.20703125 47.4140625 C37.14586594 47.43342865 36.08470062 47.4527948 34.99137878 47.4727478 C31.59850122 47.53257833 28.2055898 47.57894321 24.8125 47.625 C22.51365699 47.66317655 20.21482833 47.70222809 17.91601562 47.7421875 C12.27746017 47.83828287 6.63883776 47.92230134 1 48 C1 53.28 1 58.56 1 64 C12.22 64.33 23.44 64.66 35 65 C35 70.24597943 34.78779277 73.86775252 33.625 78.8125 C33.24214844 80.49279297 33.24214844 80.49279297 32.8515625 82.20703125 C32 85 32 85 30 87 C27.41896694 87.17502995 24.94691837 87.23162279 22.3671875 87.1953125 C21.23943405 87.19106766 21.23943405 87.19106766 20.08889771 87.18673706 C17.68410422 87.17552874 15.27968119 87.15042352 12.875 87.125 C11.24609912 87.11497102 9.61719242 87.10584503 7.98828125 87.09765625 C3.99192945 87.07728748 -0.0036199 87.03814149 -4 87 C-5.32 92.61 -6.64 98.22 -8 104 C7.51 104 23.02 104 39 104 C39 111.875 39 111.875 38 115 C37.34 115 36.68 115 36 115 C36.04640625 115.66386719 36.0928125 116.32773438 36.140625 117.01171875 C36.17671875 117.89472656 36.2128125 118.77773437 36.25 119.6875 C36.29640625 120.55761719 36.3428125 121.42773438 36.390625 122.32421875 C35.82918493 126.17008322 35.04153004 127.52433602 32 130 C28.23340598 130.61712775 24.55360095 130.4693744 20.75 130.3125 C19.203125 130.27866211 19.203125 130.27866211 17.625 130.24414062 C15.08185935 130.18527163 12.54166887 130.10310065 10 130 C9.86722656 131.04285156 9.73445313 132.08570313 9.59765625 133.16015625 C8.8473411 137.98080852 7.46502878 142.35012604 6 147 C2.37 147 -1.26 147 -5 147 C-5 141.72 -5 136.44 -5 131 C-7.64 131 -10.28 131 -13 131 C-13.27714844 132.07121094 -13.55429688 133.14242187 -13.83984375 134.24609375 C-14.20554924 135.64327627 -14.57144446 137.04040915 -14.9375 138.4375 C-15.11990234 139.14455078 -15.30230469 139.85160156 -15.49023438 140.58007812 C-16.88671875 145.88671875 -16.88671875 145.88671875 -18 147 C-20.18639453 147.07258946 -22.37500389 147.08373783 -24.5625 147.0625 C-26.35880859 147.04896484 -26.35880859 147.04896484 -28.19140625 147.03515625 C-29.11824219 147.02355469 -30.04507813 147.01195312 -31 147 C-30.38273804 141.32644329 -29.72054048 135.66138945 -29 130 C-34.28 130 -39.56 130 -45 130 C-46.29376578 127.41246844 -46.16832397 125.45041015 -46.1875 122.5625 C-46.20876953 121.11037109 -46.20876953 121.11037109 -46.23046875 119.62890625 C-46 117 -46 117 -44 114 C-43.61882364 111.82024696 -43.61882364 111.82024696 -43.5 109.5 C-43.26803665 106.02054981 -43.0298919 105.04483785 -41 102 C-39.28985273 96.5504398 -37.99211134 91.00693124 -37.5 85.3125 C-37.0875959 80.59562806 -35.63285502 76.4193576 -34 72 C-33.67 71.01 -33.34 70.02 -33 69 C-32.34 69 -31.68 69 -31 69 C-30.91959473 68.24380371 -30.83918945 67.48760742 -30.75634766 66.70849609 C-30.38609795 63.26321958 -30.00564911 59.8191424 -29.625 56.375 C-29.49867187 55.18519531 -29.37234375 53.99539062 -29.2421875 52.76953125 C-29.11328125 51.61582031 -28.984375 50.46210937 -28.8515625 49.2734375 C-28.73635254 48.21560059 -28.62114258 47.15776367 -28.50244141 46.06787109 C-27.98090158 42.8833864 -27.05088103 40.04518457 -26 37 C-25.855625 35.865625 -25.71125 34.73125 -25.5625 33.5625 C-24.8026663 28.75021989 -23.52456458 24.52456458 -20 21 C-16.7421875 20.8046875 -16.7421875 20.8046875 -12.875 20.875 C-10.95300781 20.90207031 -10.95300781 20.90207031 -8.9921875 20.9296875 C-7.51105469 20.96449219 -7.51105469 20.96449219 -6 21 C-6.02964844 20.23429687 -6.05929688 19.46859375 -6.08984375 18.6796875 C-5.97368439 15.21510844 -4.54290551 13.08581103 -3 10 C-2.64456573 7.66993089 -2.3086247 5.33672984 -2 3 C-1.34 2.01 -0.68 1.02 0 0 Z " fill="#FCFDFC" transform="translate(83,15)"/>
<path d="M0 0 C2.31243792 -0.02685412 4.6249627 -0.04632841 6.9375 -0.0625 C8.22527344 -0.07410156 9.51304688 -0.08570313 10.83984375 -0.09765625 C14 0 14 0 15 1 C15.04092937 3.33297433 15.04241723 5.66705225 15 8 C14.34 8 13.68 8 13 8 C13.01160156 8.60328125 13.02320312 9.2065625 13.03515625 9.828125 C13.04869141 11.02695312 13.04869141 11.02695312 13.0625 12.25 C13.07410156 13.03890625 13.08570312 13.8278125 13.09765625 14.640625 C13 17 13 17 12 21 C18.93 21 25.86 21 33 21 C33 28.21929137 32.93824084 32.45843716 31 39 C29.27040261 33.92006361 30.96841695 29.09723389 32 24 C31.3387915 24.00523682 30.67758301 24.01047363 29.99633789 24.01586914 C27.01840149 24.03657656 24.04048018 24.04964012 21.0625 24.0625 C20.02158203 24.07087891 18.98066406 24.07925781 17.90820312 24.08789062 C16.42416992 24.09272461 16.42416992 24.09272461 14.91015625 24.09765625 C13.53549194 24.10551147 13.53549194 24.10551147 12.13305664 24.11352539 C10 24 10 24 9 23 C8.90176063 21.33570949 8.87026369 19.66718069 8.875 18 C8.87242188 17.0925 8.86984375 16.185 8.8671875 15.25 C9 13 9 13 10 12 C10.144375 10.88625 10.28875 9.7725 10.4375 8.625 C11 5 11 5 13 2 C9.37 2 5.74 2 2 2 C2 4.97 2 7.94 2 11 C1.01 11.33 0.02 11.66 -1 12 C-1 14.31 -1 16.62 -1 19 C-1.33 19 -1.66 19 -2 19 C-2.19818283 12.29481414 -2.30844801 6.34823202 0 0 Z " fill="#D0ECD6" transform="translate(106,15)"/>
<path d="M0 0 C2.8203125 -0.29296875 2.8203125 -0.29296875 6.125 -0.1875 C7.76855469 -0.14689453 7.76855469 -0.14689453 9.4453125 -0.10546875 C10.70988281 -0.05326172 10.70988281 -0.05326172 12 0 C12 0.33 12 0.66 12 1 C11.30132812 1.02578125 10.60265625 1.0515625 9.8828125 1.078125 C8.51769531 1.16320312 8.51769531 1.16320312 7.125 1.25 C6.22007813 1.29640625 5.31515625 1.3428125 4.3828125 1.390625 C1.91635369 1.76383361 1.91635369 1.76383361 0.7109375 3.640625 C-0.18843158 6.62534435 -0.35720919 9.38716042 -0.5 12.5 C-0.83098592 19.71549296 -0.83098592 19.71549296 -3 23 C-6.18824568 24.59412284 -9.62896662 24.10174735 -13.125 24.0625 C-13.87910156 24.05798828 -14.63320312 24.05347656 -15.41015625 24.04882812 C-17.27347127 24.03703499 -19.13674555 24.01909942 -21 24 C-21 27.3 -21 30.6 -21 34 C-21.99 34.495 -21.99 34.495 -23 35 C-23.31670503 37.42161969 -23.31670503 37.42161969 -23.375 40.25 C-23.70361975 45.01808657 -24.38966901 47.62259359 -28 51 C-28.18262291 45.70393571 -27.81674579 42.02276777 -26 37 C-25.855625 35.865625 -25.71125 34.73125 -25.5625 33.5625 C-24.8026663 28.75021989 -23.52456458 24.52456458 -20 21 C-16.7421875 20.8046875 -16.7421875 20.8046875 -12.875 20.875 C-10.95300781 20.90207031 -10.95300781 20.90207031 -8.9921875 20.9296875 C-7.51105469 20.96449219 -7.51105469 20.96449219 -6 21 C-6.02964844 20.23429687 -6.05929688 19.46859375 -6.08984375 18.6796875 C-5.97368439 15.21510844 -4.54290551 13.08581103 -3 10 C-2.64456573 7.66993089 -2.3086247 5.33672984 -2 3 C-1.34 2.01 -0.68 1.02 0 0 Z " fill="#CDEBD3" transform="translate(83,15)"/>
<path d="M0 0 C1.1700097 3.91736581 0.69584017 6.97959015 0 11 C-0.99 11.33 -1.98 11.66 -3 12 C-2.98839844 12.92683594 -2.97679687 13.85367188 -2.96484375 14.80859375 C-2.95582031 16.00613281 -2.94679688 17.20367187 -2.9375 18.4375 C-2.92589844 19.63246094 -2.91429687 20.82742187 -2.90234375 22.05859375 C-3 25 -3 25 -4 26 C-4.23192865 27.51469448 -4.41215238 29.03754562 -4.5625 30.5625 C-4.68818359 31.80193359 -4.68818359 31.80193359 -4.81640625 33.06640625 C-4.87699219 33.70449219 -4.93757813 34.34257812 -5 35 C-3.85660156 34.98839844 -2.71320312 34.97679687 -1.53515625 34.96484375 C-0.04427246 34.95546712 1.44661309 34.94636679 2.9375 34.9375 C3.69224609 34.92912109 4.44699219 34.92074219 5.22460938 34.91210938 C7.14994313 34.90347559 9.07535581 34.94775667 11 35 C12 36 12 36 12.09765625 39.16015625 C12.08605469 40.44792969 12.07445313 41.73570312 12.0625 43.0625 C12.05347656 44.35285156 12.04445313 45.64320313 12.03515625 46.97265625 C12.02355469 47.97167969 12.01195313 48.97070312 12 50 C15.3 50 18.6 50 22 50 C21.67 50.99 21.34 51.98 21 53 C16.71 53 12.42 53 8 53 C8.62053829 47.32650709 9.27942782 41.66163857 10 36 C4.72 36 -0.56 36 -6 36 C-7.29376578 33.41246844 -7.16832397 31.45041015 -7.1875 28.5625 C-7.20167969 27.59441406 -7.21585938 26.62632812 -7.23046875 25.62890625 C-7 23 -7 23 -5 20 C-4.61882364 17.82024696 -4.61882364 17.82024696 -4.5 15.5 C-4.26803665 12.02054981 -4.0298919 11.04483785 -2 8 C-1.33841957 5.95415921 -1.33841957 5.95415921 -0.875 3.8125 C-0.58625 2.554375 -0.2975 1.29625 0 0 Z " fill="#ABDEB6" transform="translate(44,109)"/>
<path d="M0 0 C0 0.99 0 1.98 0 3 C-0.55710159 3.01030746 -1.11420319 3.02061493 -1.68818665 3.03123474 C-7.47933692 3.1393002 -13.27033161 3.25389827 -19.0612793 3.37231445 C-21.2233556 3.41566313 -23.38546613 3.45733825 -25.54760742 3.49731445 C-28.65293702 3.55501844 -31.75809436 3.61871272 -34.86328125 3.68359375 C-35.83211746 3.70030624 -36.80095367 3.71701874 -37.79914856 3.73423767 C-39.15020943 3.7641555 -39.15020943 3.7641555 -40.52856445 3.79467773 C-41.32132278 3.81022202 -42.11408112 3.8257663 -42.93086243 3.84178162 C-45.19739774 3.93081226 -45.19739774 3.93081226 -48 5 C-48 9.62 -48 14.24 -48 19 C-36.78 19 -25.56 19 -14 19 C-14 21.64 -14 24.28 -14 27 C-14.33 27 -14.66 27 -15 27 C-15 24.69 -15 22.38 -15 20 C-16.53708618 20.00785522 -16.53708618 20.00785522 -18.10522461 20.01586914 C-21.89395276 20.03391969 -25.68267709 20.0454322 -29.47143555 20.05493164 C-31.11369464 20.05997174 -32.75594923 20.06680378 -34.39819336 20.07543945 C-36.75375479 20.08751926 -39.10925709 20.09323139 -41.46484375 20.09765625 C-42.20339096 20.10281754 -42.94193817 20.10797882 -43.7028656 20.11329651 C-45.46898088 20.1134925 -47.23497146 20.06194719 -49 20 C-49.33 19.67 -49.66 19.34 -50 19 C-49.9617371 16.31571071 -49.85535447 13.67647407 -49.6875 11 C-49.65205078 10.24976562 -49.61660156 9.49953125 -49.58007812 8.7265625 C-49.46427187 6.81143822 -49.2400308 4.90354861 -49 3 C-46.64880072 1.82440036 -45.18834422 1.85111718 -42.56616211 1.81054688 C-41.64858627 1.79382935 -40.73101044 1.77711182 -39.78562927 1.7598877 C-38.79289505 1.74631226 -37.80016083 1.73273682 -36.77734375 1.71875 C-35.76152725 1.70034058 -34.74571075 1.68193115 -33.69911194 1.66296387 C-29.33914997 1.58407592 -24.97902988 1.51639722 -20.61889648 1.44775391 C-17.44246441 1.39616617 -14.2661712 1.33886817 -11.08984375 1.28125 C-10.0950853 1.26767456 -9.10032684 1.25409912 -8.07542419 1.2401123 C-7.16100052 1.22339478 -6.24657684 1.20667725 -5.30444336 1.18945312 C-4.49551132 1.17692505 -3.68657928 1.16439697 -2.85313416 1.15148926 C-0.98420384 1.19991843 -0.98420384 1.19991843 0 0 Z " fill="#9ED8AA" transform="translate(133,60)"/>
<path d="M0 0 C0 3 0 3 -2 7 C-12.89 6.505 -12.89 6.505 -24 6 C-24 9.63 -24 13.26 -24 17 C-24.99 17 -25.98 17 -27 17 C-27.33 18.98 -27.66 20.96 -28 23 C-30.14576637 23.02685938 -32.29162645 23.04633088 -34.4375 23.0625 C-35.63246094 23.07410156 -36.82742187 23.08570313 -38.05859375 23.09765625 C-41 23 -41 23 -42 22 C-41.96190945 19.87278943 -41.84440703 17.74675773 -41.6875 15.625 C-41.60886719 14.46226562 -41.53023438 13.29953125 -41.44921875 12.1015625 C-41 9 -41 9 -39 6 C-39.33 11.28 -39.66 16.56 -40 22 C-36.37 22 -32.74 22 -29 22 C-28.8453125 20.576875 -28.8453125 20.576875 -28.6875 19.125 C-27.88751261 14.32507566 -26.39827312 9.6609104 -25 5 C-17.74 5 -10.48 5 -3 5 C-2.34 3.68 -1.68 2.36 -1 1 C-0.67 0.67 -0.34 0.34 0 0 Z " fill="#90D39F" transform="translate(118,140)"/>
<path d="M0 0 C2.75 -0.328125 2.75 -0.328125 6 -0.25 C7.0725 -0.23453125 8.145 -0.2190625 9.25 -0.203125 C12 0 12 0 14 1 C14 2.98 14 4.96 14 7 C13.34 7 12.68 7 12 7 C12 10.3 12 13.6 12 17 C14.97 17 17.94 17 21 17 C21 17.66 21 18.32 21 19 C17.37 19 13.74 19 10 19 C10 13.72 10 8.44 10 3 C7.36 3 4.72 3 2 3 C1.01 6.96 0.02 10.92 -1 15 C-1.33 15 -1.66 15 -2 15 C-2.05406122 13.06280622 -2.09282025 11.12518079 -2.125 9.1875 C-2.14820312 8.10855469 -2.17140625 7.02960938 -2.1953125 5.91796875 C-2 3 -2 3 0 0 Z " fill="#D8EFDD" transform="translate(68,143)"/>
<path d="M0 0 C0.495 1.485 0.495 1.485 1 3 C-1 5 -1 5 -4.34814453 5.22705078 C-5.77640633 5.22673375 -7.20469212 5.21541361 -8.6328125 5.1953125 C-9.76056595 5.19106766 -9.76056595 5.19106766 -10.91110229 5.18673706 C-13.31589578 5.17552874 -15.72031881 5.15042352 -18.125 5.125 C-19.75390088 5.11497102 -21.38280758 5.10584503 -23.01171875 5.09765625 C-27.00795556 5.07558735 -31.00391494 5.04105351 -35 5 C-36.485 11.435 -36.485 11.435 -38 18 C-38.33 18 -38.66 18 -39 18 C-39.08187055 16.43839515 -39.13958275 14.87551517 -39.1875 13.3125 C-39.22230469 12.44238281 -39.25710937 11.57226562 -39.29296875 10.67578125 C-38.91745204 7.24606199 -38.21772313 5.66433273 -36 3 C-33.16125365 2.47320825 -30.89557622 2.27805394 -28.05078125 2.29296875 C-26.89185616 2.27028679 -26.89185616 2.27028679 -25.70951843 2.24714661 C-23.24355077 2.20418311 -20.77880502 2.19542406 -18.3125 2.1875 C-16.63994128 2.16436216 -14.96741176 2.1389983 -13.29492188 2.11132812 C-9.19650619 2.04839127 -5.09885644 2.01612354 -1 2 C-0.67 1.34 -0.34 0.68 0 0 Z " fill="#BAE4C2" transform="translate(114,97)"/>
<path d="M0 0 C0.33 0.99 0.66 1.98 1 3 C16.51 3 32.02 3 48 3 C48 10.875 48 10.875 47 14 C46.34 14 45.68 14 45 14 C45 17.3 45 20.6 45 24 C44.01 24.495 44.01 24.495 43 25 C43.14033111 23.02043559 43.2874123 21.04134859 43.4375 19.0625 C43.51871094 17.96035156 43.59992188 16.85820312 43.68359375 15.72265625 C44 13 44 13 45 12 C45.36760731 9.67182036 45.70241581 7.3381615 46 5 C45.19304687 5.01160156 44.38609375 5.02320312 43.5546875 5.03515625 C29.02660503 5.1431144 14.51580506 4.53300222 0 4 C0 2.68 0 1.36 0 0 Z " fill="#C4E8CC" transform="translate(74,116)"/>
<path d="M0 0 C0.88068649 0.00015106 1.76137299 0.00030212 2.66874695 0.00045776 C3.61570938 0.01078033 4.56267181 0.02110291 5.53833008 0.03173828 C6.51071121 0.03456818 7.48309235 0.03739807 8.48493958 0.04031372 C11.59270499 0.05151479 14.70018292 0.07661931 17.80786133 0.10205078 C19.91397696 0.11208067 22.02009711 0.12120651 24.1262207 0.12939453 C29.29104513 0.1514539 34.45565447 0.18598332 39.62036133 0.22705078 C39.29036133 0.88705078 38.96036133 1.54705078 38.62036133 2.22705078 C24.10036133 2.55705078 9.58036133 2.88705078 -5.37963867 3.22705078 C-5.37963867 4.21705078 -5.37963867 5.20705078 -5.37963867 6.22705078 C-6.03963867 6.22705078 -6.69963867 6.22705078 -7.37963867 6.22705078 C-7.37963867 4.90705078 -7.37963867 3.58705078 -7.37963867 2.22705078 C-4.24433638 0.13684925 -3.56132097 -0.02040872 0 0 Z " fill="#62C177" transform="translate(92.379638671875,62.77294921875)"/>
<path d="M0 0 C0.33 0 0.66 0 1 0 C1.0272415 1.41655793 1.04650467 2.83327045 1.0625 4.25 C1.07410156 5.03890625 1.08570312 5.8278125 1.09765625 6.640625 C1 9 1 9 0 13 C6.93 13 13.86 13 21 13 C21 20.21929137 20.93824084 24.45843716 19 31 C17.73176515 27.34606463 18.24284679 24.50929974 18.9375 20.75 C19.13214844 19.67234375 19.32679688 18.5946875 19.52734375 17.484375 C19.68332031 16.66453125 19.83929688 15.8446875 20 15 C19.36908447 15.00523682 18.73816895 15.01047363 18.08813477 15.01586914 C15.24626653 15.03657826 12.40441412 15.04964066 9.5625 15.0625 C8.07266602 15.07506836 8.07266602 15.07506836 6.55273438 15.08789062 C5.60849609 15.09111328 4.66425781 15.09433594 3.69140625 15.09765625 C2.81685791 15.10289307 1.94230957 15.10812988 1.04125977 15.11352539 C-1 15 -1 15 -2 14 C-2.04080783 12.00041636 -2.04254356 9.99954746 -2 8 C-1.34 8 -0.68 8 0 8 C0 5.36 0 2.72 0 0 Z " fill="#A1DAAD" transform="translate(118,23)"/>
<path d="M0 0 C0.33 0.99 0.66 1.98 1 3 C16.51 3 32.02 3 48 3 C48 7.62 48 12.24 48 17 C47.34 17.66 46.68 18.32 46 19 C45.30251417 20.31747324 44.63040043 21.64914193 44 23 C44 20.36 44 17.72 44 15 C44.66 15 45.32 15 46 15 C46.33 11.37 46.66 7.74 47 4 C31.49 4 15.98 4 0 4 C0 2.68 0 1.36 0 0 Z " fill="#78C988" transform="translate(75,115)"/>
<path d="M0 0 C2 2 2 2 2 5 C11.57 5 21.14 5 31 5 C31 5.66 31 6.32 31 7 C20.77 7 10.54 7 0 7 C0 4.69 0 2.38 0 0 Z " fill="#43B55B" transform="translate(86,70)"/>
<path d="M0 0 C0.66 1.32 1.32 2.64 2 4 C13.22 4.33 24.44 4.66 36 5 C36 9.74103585 35.9690858 13.01604603 35 17.4375 C34.7215625 18.73494141 34.7215625 18.73494141 34.4375 20.05859375 C34.293125 20.69925781 34.14875 21.33992188 34 22 C33.67 22 33.34 22 33 22 C32.94550162 20.27119018 32.90698312 18.54187288 32.875 16.8125 C32.85179687 15.84957031 32.82859375 14.88664062 32.8046875 13.89453125 C33.00960799 10.85760961 33.81651559 8.77852654 35 6 C33.97527588 6.03552979 32.95055176 6.07105957 31.89477539 6.10766602 C28.10619988 6.2376754 24.31743066 6.36096137 20.52856445 6.48217773 C18.88625066 6.53566959 17.24399584 6.59100431 15.60180664 6.64819336 C13.24638594 6.72990479 10.89083518 6.80506639 8.53515625 6.87890625 C7.79660904 6.90594131 7.05806183 6.93297638 6.2971344 6.96083069 C4.53214384 7.0129438 2.7657199 7.0118612 1 7 C0 6 0 6 -0.0625 2.9375 C-0.041875 1.968125 -0.02125 0.99875 0 0 Z " fill="#DEF2E2" transform="translate(82,75)"/>
<path d="M0 0 C0.33 0 0.66 0 1 0 C1 3.3 1 6.6 1 10 C4.3 10 7.6 10 11 10 C10.67 10.99 10.34 11.98 10 13 C5.71 13 1.42 13 -3 13 C-2.67 10.03 -2.34 7.06 -2 4 C-1.34 4 -0.68 4 0 4 C0 2.68 0 1.36 0 0 Z " fill="#CCEBD3" transform="translate(55,149)"/>
<path d="M0 0 C0 3 0 3 -2 7 C-9.26 6.67 -16.52 6.34 -24 6 C-24 9.63 -24 13.26 -24 17 C-24.66 17 -25.32 17 -26 17 C-25.67 13.04 -25.34 9.08 -25 5 C-17.74 5 -10.48 5 -3 5 C-2.34 3.68 -1.68 2.36 -1 1 C-0.67 0.67 -0.34 0.34 0 0 Z " fill="#72C784" transform="translate(118,140)"/>
<path d="M0 0 C0.33 0 0.66 0 1 0 C1 2.97 1 5.94 1 9 C0.01 9.495 0.01 9.495 -1 10 C-1.31670503 12.42161969 -1.31670503 12.42161969 -1.375 15.25 C-1.70361975 20.01808657 -2.38966901 22.62259359 -6 26 C-6.50724362 19.15221113 -4.99098933 14.16215874 -2 8 C-1.67 7.67 -1.34 7.34 -1 7 C-0.63239269 4.67182036 -0.29758419 2.3381615 0 0 Z " fill="#C5E8CD" transform="translate(61,40)"/>
<path d="M0 0 C0.33 0 0.66 0 1 0 C1.40850553 7.08076251 -0.09579269 13.19925959 -2 20 C-0.54119891 19.85892253 0.91703551 19.71197585 2.375 19.5625 C3.18710938 19.48128906 3.99921875 19.40007813 4.8359375 19.31640625 C7.04272805 19.10909886 7.04272805 19.10909886 9 18 C8 21 8 21 6 22 C3.30986661 22.18704404 0.70313823 22.08581391 -2 22 C-3.79904778 20.20095222 -3.17296543 17.54936549 -3.1875 15.125 C-3.20167969 14.05507813 -3.21585937 12.98515625 -3.23046875 11.8828125 C-3 9 -3 9 -1 6 C-0.60986284 4.0103005 -0.26797351 2.00980131 0 0 Z " fill="#A7DCB2" transform="translate(95,16)"/>
<path d="M0 0 C0.97451359 3.16533736 1.02313245 5.71380766 0.6875 9 C0.60886719 9.845625 0.53023437 10.69125 0.44921875 11.5625 C-0.00954528 14.05179351 -0.84345799 15.76855423 -2 18 C-2.38749213 20.32495277 -2.72982839 22.65851268 -3 25 C-3.66 25 -4.32 25 -5 25 C-4.64959808 17.18241228 -3.90240361 10.28755689 -1 3 C-0.67 2.01 -0.34 1.02 0 0 Z " fill="#B6E2BF" transform="translate(50,84)"/>
<path d="M0 0 C1.1700097 3.91736581 0.69584017 6.97959015 0 11 C-0.99 11.33 -1.98 11.66 -3 12 C-2.98839844 12.61488281 -2.97679687 13.22976562 -2.96484375 13.86328125 C-2.95582031 14.67152344 -2.94679688 15.47976562 -2.9375 16.3125 C-2.92589844 17.11300781 -2.91429687 17.91351563 -2.90234375 18.73828125 C-3 21 -3 21 -4 24 C-4.66 24 -5.32 24 -6 24 C-6 27.3 -6 30.6 -6 34 C-6.33 34 -6.66 34 -7 34 C-7.05410687 32.22950311 -7.09284119 30.45853151 -7.125 28.6875 C-7.14820313 27.70136719 -7.17140625 26.71523437 -7.1953125 25.69921875 C-7 23 -7 23 -5 20 C-4.61882364 17.82024696 -4.61882364 17.82024696 -4.5 15.5 C-4.26803665 12.02054981 -4.0298919 11.04483785 -2 8 C-1.33841957 5.95415921 -1.33841957 5.95415921 -0.875 3.8125 C-0.58625 2.554375 -0.2975 1.29625 0 0 Z " fill="#91D39F" transform="translate(44,109)"/>
<path d="M0 0 C2.77109307 -0.05392397 5.54113818 -0.09363455 8.3125 -0.125 C9.09818359 -0.14175781 9.88386719 -0.15851563 10.69335938 -0.17578125 C11.45068359 -0.18222656 12.20800781 -0.18867188 12.98828125 -0.1953125 C13.68477783 -0.20578613 14.38127441 -0.21625977 15.09887695 -0.22705078 C17 0 17 0 20 2 C14.06 2 8.12 2 2 2 C1.67 3.65 1.34 5.3 1 7 C0.67 7 0.34 7 0 7 C0 4.69 0 2.38 0 0 Z " fill="#47B75F" transform="translate(94,146)"/>
<path d="M0 0 C2.05078125 0.03255208 4.1015625 0.06510417 6.15234375 0.09765625 C6.15234375 0.42765625 6.15234375 0.75765625 6.15234375 1.09765625 C3.84234375 1.09765625 1.53234375 1.09765625 -0.84765625 1.09765625 C-0.84765625 3.40765625 -0.84765625 5.71765625 -0.84765625 8.09765625 C-1.83765625 8.42765625 -2.82765625 8.75765625 -3.84765625 9.09765625 C-3.84765625 11.40765625 -3.84765625 13.71765625 -3.84765625 16.09765625 C-4.83765625 16.09765625 -5.82765625 16.09765625 -6.84765625 16.09765625 C-6.2059418 13.61735527 -5.55950304 11.13845903 -4.91015625 8.66015625 C-4.63655273 7.59958008 -4.63655273 7.59958008 -4.35742188 6.51757812 C-2.6795394 0.1416247 -2.6795394 0.1416247 0 0 Z " fill="#73C885" transform="translate(71.84765625,144.90234375)"/>
<path d="M0 0 C0.33 0 0.66 0 1 0 C0.88541307 1.43836751 0.75790884 2.87570966 0.625 4.3125 C0.55539063 5.11300781 0.48578125 5.91351563 0.4140625 6.73828125 C0 9 0 9 -2 12 C-4.77262255 12.38394667 -7.34323528 12.60342248 -10.125 12.6875 C-10.87910156 12.72166016 -11.63320312 12.75582031 -12.41015625 12.79101562 C-14.27291201 12.87354278 -16.13643326 12.93844711 -18 13 C-17.67 12.34 -17.34 11.68 -17 11 C-12.38 11 -7.76 11 -3 11 C-3 9.35 -3 7.7 -3 6 C-1.5 2.6875 -1.5 2.6875 0 0 Z " fill="#88D098" transform="translate(80,25)"/>
<path d="M0 0 C4.62 0 9.24 0 14 0 C14 0.33 14 0.66 14 1 C9.71 1 5.42 1 1 1 C1.04125 1.928125 1.0825 2.85625 1.125 3.8125 C1.1462373 8.9731635 0.02043018 13.96162598 -1 19 C-1.33 19 -1.66 19 -2 19 C-2.19818283 12.29481414 -2.30844801 6.34823202 0 0 Z " fill="#9BD8A8" transform="translate(106,15)"/>
<path d="M0 0 C4.95 0 9.9 0 15 0 C15.37211538 12.52788462 15.37211538 12.52788462 13.48828125 14.91796875 C12.99714844 15.27503906 12.50601563 15.63210937 12 16 C12.165 15.175 12.33 14.35 12.5 13.5 C13.05896045 9.58727683 13.06807187 5.94816827 13 2 C9.04 1.67 5.08 1.34 1 1 C0.67 1.66 0.34 2.32 0 3 C0 2.01 0 1.02 0 0 Z " fill="#6BC57E" transform="translate(82,14)"/>
<path d="M0 0 C1.54715835 4.71721009 0.18018555 8.27925781 -1 13 C3.29 13 7.58 13 12 13 C12 13.33 12 13.66 12 14 C7.38 14 2.76 14 -2 14 C-2.1953125 4.8203125 -2.1953125 4.8203125 -2 2 C-1.34 1.34 -0.68 0.68 0 0 Z " fill="#73C885" transform="translate(53,149)"/>
<path d="M0 0 C1.33998047 0.06960937 1.33998047 0.06960937 2.70703125 0.140625 C3.60808594 0.17671875 4.50914063 0.2128125 5.4375 0.25 C6.46810547 0.31960937 6.46810547 0.31960937 7.51953125 0.390625 C7.84953125 2.040625 8.17953125 3.690625 8.51953125 5.390625 C7.85953125 4.400625 7.19953125 3.410625 6.51953125 2.390625 C4.54206003 2.02764564 4.54206003 2.02764564 2.39453125 2.203125 C1.11578125 2.265 -0.16296875 2.326875 -1.48046875 2.390625 C-2.47046875 6.350625 -3.46046875 10.310625 -4.48046875 14.390625 C-4.81046875 14.390625 -5.14046875 14.390625 -5.48046875 14.390625 C-5.56200808 12.80815793 -5.61990432 11.22446227 -5.66796875 9.640625 C-5.70277344 8.75890625 -5.73757812 7.8771875 -5.7734375 6.96875 C-5.31648537 2.94757124 -4.15596729 0.65448304 0 0 Z " fill="#B6E2C0" transform="translate(71.48046875,143.609375)"/>
<path d="M0 0 C0.66 0 1.32 0 2 0 C2.05384521 2.29141286 2.09272087 4.58318188 2.125 6.875 C2.14820312 8.15117188 2.17140625 9.42734375 2.1953125 10.7421875 C2 14 2 14 0 16 C-0.69748583 17.31747324 -1.36959957 18.64914193 -2 20 C-2 17.36 -2 14.72 -2 12 C-1.34 12 -0.68 12 0 12 C0 8.04 0 4.08 0 0 Z " fill="#6EC681" transform="translate(121,118)"/>
<path d="M0 0 C0.33 0 0.66 0 1 0 C1.25012456 7.50373692 1.25012456 7.50373692 0.01953125 9.9453125 C-1.54859589 13.10559938 -1.39858534 16.27891993 -1.55859375 19.7578125 C-1.70425781 20.49773437 -1.84992187 21.23765625 -2 22 C-2.99 22.66 -3.98 23.32 -5 24 C-4.505 22.515 -4.505 22.515 -4 21 C-3.73132424 17.61383251 -3.5548796 14.22810468 -3.37890625 10.8359375 C-3.25386719 9.90007812 -3.12882812 8.96421875 -3 8 C-2.34 7.67 -1.68 7.34 -1 7 C-0.59270772 4.67843403 -0.25561323 2.3431213 0 0 Z " fill="#DAF0DF" transform="translate(44,113)"/>
<path d="M0 0 C0.66 0 1.32 0 2 0 C1.55040347 2.77251194 1.09073921 5.54269519 0.625 8.3125 C0.49867187 9.09818359 0.37234375 9.88386719 0.2421875 10.69335938 C0.11328125 11.45068359 -0.015625 12.20800781 -0.1484375 12.98828125 C-0.26364746 13.68477783 -0.37885742 14.38127441 -0.49755859 15.09887695 C-1 17 -1 17 -3 20 C-3.04241723 17.66705225 -3.04092937 15.33297433 -3 13 C-2.67 12.67 -2.34 12.34 -2 12 C-1.79162581 10.17093765 -1.63250341 8.33611866 -1.5 6.5 C-1.11111111 1.11111111 -1.11111111 1.11111111 0 0 Z " fill="#6AC47D" transform="translate(46,92)"/>
<path d="M0 0 C1.22506359 3.59699524 0.82116076 6.41420962 0.1875 10.125 C0.01605469 11.17945312 -0.15539063 12.23390625 -0.33203125 13.3203125 C-1 16 -1 16 -3 18 C-2.88602456 15.56152549 -2.75929026 13.12486826 -2.625 10.6875 C-2.5940625 9.99720703 -2.563125 9.30691406 -2.53125 8.59570312 C-2.31875081 4.93009211 -2.08066139 3.12099208 0 0 Z " fill="#A3DBAF" transform="translate(54,66)"/>
<path d="M0 0 C2.8203125 -0.29296875 2.8203125 -0.29296875 6.125 -0.1875 C7.76855469 -0.14689453 7.76855469 -0.14689453 9.4453125 -0.10546875 C10.28835937 -0.07066406 11.13140625 -0.03585937 12 0 C12 0.33 12 0.66 12 1 C8.7 1.33 5.4 1.66 2 2 C1.01 4.31 0.02 6.62 -1 9 C-1.33 9 -1.66 9 -2 9 C-2.25 3.375 -2.25 3.375 0 0 Z " fill="#A4DBAF" transform="translate(83,15)"/>
<path d="M0 0 C0.33 0 0.66 0 1 0 C1.33266291 6.20970773 0.45029331 10.28264895 -2 16 C-2.33 16 -2.66 16 -3 16 C-3.25 9.375 -3.25 9.375 -1 6 C-0.60986284 4.0103005 -0.26797351 2.00980131 0 0 Z " fill="#B9E3C2" transform="translate(95,16)"/>
<path d="M0 0 C1.53166168 4.08443115 0.63081652 7.79455657 0 12 C-0.66 12 -1.32 12 -2 12 C-2.33 12.66 -2.66 13.32 -3 14 C-3.042721 12.33388095 -3.04063832 10.66617115 -3 9 C-2.67 8.67 -2.34 8.34 -2 8 C-1.835 6.845 -1.67 5.69 -1.5 4.5 C-1 1 -1 1 0 0 Z " fill="#E1F3E5" transform="translate(118,19)"/>
<path d="M0 0 C0.33 0 0.66 0 1 0 C1.25706972 5.91260345 0.2982126 11.23918159 -1 17 C-1.33 17 -1.66 17 -2 17 C-2.3690205 5.47835991 -2.3690205 5.47835991 0 0 Z " fill="#CFEBD5" transform="translate(117,80)"/>
<path d="M0 0 C0.99 0 1.98 0 3 0 C3 2.64 3 5.28 3 8 C2.34 8 1.68 8 1 8 C1 6.02 1 4.04 1 2 C0.34 1.67 -0.32 1.34 -1 1 C-0.67 0.67 -0.34 0.34 0 0 Z " fill="#42B65B" transform="translate(74,147)"/>
<path d="M0 0 C1.57432497 3.14864995 0.71895552 5.64487425 0 9 C-0.99 9.66 -1.98 10.32 -3 11 C-2.32829194 7.1936543 -1.27253436 3.64793184 0 0 Z " fill="#A2DAAE" transform="translate(61,38)"/>
</svg>
