<svg id="visual" viewBox="0 0 960 540" width="960" height="540" xmlns="http://www.w3.org/2000/svg" xmlns:xlink="http://www.w3.org/1999/xlink" version="1.1"><rect x="0" y="0" width="960" height="540" fill="#2a2b2c"></rect><path d="M0 334L22.8 336.5C45.7 339 91.3 344 137 345.2C182.7 346.3 228.3 343.7 274 351C319.7 358.3 365.3 375.7 411.2 374.7C457 373.7 503 354.3 548.8 349.5C594.7 344.7 640.3 354.3 686 361.5C731.7 368.7 777.3 373.3 823 378.5C868.7 383.7 914.3 389.3 937.2 392.2L960 395L960 541L937.2 541C914.3 541 868.7 541 823 541C777.3 541 731.7 541 686 541C640.3 541 594.7 541 548.8 541C503 541 457 541 411.2 541C365.3 541 319.7 541 274 541C228.3 541 182.7 541 137 541C91.3 541 45.7 541 22.8 541L0 541Z" fill="#76fa69"></path><path d="M0 390L22.8 392.5C45.7 395 91.3 400 137 398.8C182.7 397.7 228.3 390.3 274 389.5C319.7 388.7 365.3 394.3 411.2 390.8C457 387.3 503 374.7 548.8 378.2C594.7 381.7 640.3 401.3 686 410.7C731.7 420 777.3 419 823 420.8C868.7 422.7 914.3 427.3 937.2 429.7L960 432L960 541L937.2 541C914.3 541 868.7 541 823 541C777.3 541 731.7 541 686 541C640.3 541 594.7 541 548.8 541C503 541 457 541 411.2 541C365.3 541 319.7 541 274 541C228.3 541 182.7 541 137 541C91.3 541 45.7 541 22.8 541L0 541Z" fill="#65ed59"></path><path d="M0 408L22.8 413.8C45.7 419.7 91.3 431.3 137 431.7C182.7 432 228.3 421 274 416.3C319.7 411.7 365.3 413.3 411.2 411.5C457 409.7 503 404.3 548.8 402.8C594.7 401.3 640.3 403.7 686 410.2C731.7 416.7 777.3 427.3 823 425.8C868.7 424.3 914.3 410.7 937.2 403.8L960 397L960 541L937.2 541C914.3 541 868.7 541 823 541C777.3 541 731.7 541 686 541C640.3 541 594.7 541 548.8 541C503 541 457 541 411.2 541C365.3 541 319.7 541 274 541C228.3 541 182.7 541 137 541C91.3 541 45.7 541 22.8 541L0 541Z" fill="#54e049"></path><path d="M0 434L22.8 439.5C45.7 445 91.3 456 137 462.8C182.7 469.7 228.3 472.3 274 473.3C319.7 474.3 365.3 473.7 411.2 472.5C457 471.3 503 469.7 548.8 467.3C594.7 465 640.3 462 686 460.8C731.7 459.7 777.3 460.3 823 464.2C868.7 468 914.3 475 937.2 478.5L960 482L960 541L937.2 541C914.3 541 868.7 541 823 541C777.3 541 731.7 541 686 541C640.3 541 594.7 541 548.8 541C503 541 457 541 411.2 541C365.3 541 319.7 541 274 541C228.3 541 182.7 541 137 541C91.3 541 45.7 541 22.8 541L0 541Z" fill="#41d338"></path><path d="M0 478L22.8 484.3C45.7 490.7 91.3 503.3 137 509.3C182.7 515.3 228.3 514.7 274 507.8C319.7 501 365.3 488 411.2 486C457 484 503 493 548.8 499.8C594.7 506.7 640.3 511.3 686 512.8C731.7 514.3 777.3 512.7 823 509C868.7 505.3 914.3 499.7 937.2 496.8L960 494L960 541L937.2 541C914.3 541 868.7 541 823 541C777.3 541 731.7 541 686 541C640.3 541 594.7 541 548.8 541C503 541 457 541 411.2 541C365.3 541 319.7 541 274 541C228.3 541 182.7 541 137 541C91.3 541 45.7 541 22.8 541L0 541Z" fill="#29c724"></path></svg>