<svg id="visual" viewBox="0 0 900 450" width="900" height="450" xmlns="http://www.w3.org/2000/svg" xmlns:xlink="http://www.w3.org/1999/xlink" version="1.1"><rect x="0" y="0" width="900" height="450" fill="#19651b"></rect><path d="M0 312L8.8 323.5C17.7 335 35.3 358 53 363.2C70.7 368.3 88.3 355.7 106 350.5C123.7 345.3 141.3 347.7 159 350C176.7 352.3 194.3 354.7 212 358.5C229.7 362.3 247.3 367.7 265 367.2C282.7 366.7 300.3 360.3 318 353.3C335.7 346.3 353.3 338.7 371 341.7C388.7 344.7 406.3 358.3 423.8 357.3C441.3 356.3 458.7 340.7 476.2 330.3C493.7 320 511.3 315 529 318.7C546.7 322.3 564.3 334.7 582 337.5C599.7 340.3 617.3 333.7 635 337C652.7 340.3 670.3 353.7 688 362.5C705.7 371.3 723.3 375.7 741 366.7C758.7 357.7 776.3 335.3 794 333.2C811.7 331 829.3 349 847 349.8C864.7 350.7 882.3 334.3 891.2 326.2L900 318L900 451L891.2 451C882.3 451 864.7 451 847 451C829.3 451 811.7 451 794 451C776.3 451 758.7 451 741 451C723.3 451 705.7 451 688 451C670.3 451 652.7 451 635 451C617.3 451 599.7 451 582 451C564.3 451 546.7 451 529 451C511.3 451 493.7 451 476.2 451C458.7 451 441.3 451 423.8 451C406.3 451 388.7 451 371 451C353.3 451 335.7 451 318 451C300.3 451 282.7 451 265 451C247.3 451 229.7 451 212 451C194.3 451 176.7 451 159 451C141.3 451 123.7 451 106 451C88.3 451 70.7 451 53 451C35.3 451 17.7 451 8.8 451L0 451Z" fill="#00ff64" stroke-linecap="round" stroke-linejoin="miter"></path></svg>