<svg id="visual" viewBox="0 0 1600 600" width="1600" height="600" xmlns="http://www.w3.org/2000/svg" xmlns:xlink="http://www.w3.org/1999/xlink" version="1.1"><rect x="0" y="0" width="1600" height="600" fill="#1d0021"></rect><path d="M0 439L38.2 437.5C76.3 436 152.7 433 228.8 428.7C305 424.3 381 418.7 457.2 415.3C533.3 412 609.7 411 685.8 421C762 431 838 452 914.2 458.2C990.3 464.3 1066.7 455.7 1142.8 443.7C1219 431.7 1295 416.3 1371.2 420.2C1447.3 424 1523.7 447 1561.8 458.5L1600 470L1600 601L1561.8 601C1523.7 601 1447.3 601 1371.2 601C1295 601 1219 601 1142.8 601C1066.7 601 990.3 601 914.2 601C838 601 762 601 685.8 601C609.7 601 533.3 601 457.2 601C381 601 305 601 228.8 601C152.7 601 76.3 601 38.2 601L0 601Z" fill="#7ffa69"></path><path d="M0 489L38.2 486.2C76.3 483.3 152.7 477.7 228.8 476.2C305 474.7 381 477.3 457.2 472.8C533.3 468.3 609.7 456.7 685.8 452C762 447.3 838 449.7 914.2 450.3C990.3 451 1066.7 450 1142.8 451.3C1219 452.7 1295 456.3 1371.2 463.8C1447.3 471.3 1523.7 482.7 1561.8 488.3L1600 494L1600 601L1561.8 601C1523.7 601 1447.3 601 1371.2 601C1295 601 1219 601 1142.8 601C1066.7 601 990.3 601 914.2 601C838 601 762 601 685.8 601C609.7 601 533.3 601 457.2 601C381 601 305 601 228.8 601C152.7 601 76.3 601 38.2 601L0 601Z" fill="#6eed59"></path><path d="M0 507L38.2 509.3C76.3 511.7 152.7 516.3 228.8 511.8C305 507.3 381 493.7 457.2 489.3C533.3 485 609.7 490 685.8 496.3C762 502.7 838 510.3 914.2 506.5C990.3 502.7 1066.7 487.3 1142.8 486.3C1219 485.3 1295 498.7 1371.2 504.7C1447.3 510.7 1523.7 509.3 1561.8 508.7L1600 508L1600 601L1561.8 601C1523.7 601 1447.3 601 1371.2 601C1295 601 1219 601 1142.8 601C1066.7 601 990.3 601 914.2 601C838 601 762 601 685.8 601C609.7 601 533.3 601 457.2 601C381 601 305 601 228.8 601C152.7 601 76.3 601 38.2 601L0 601Z" fill="#5de049"></path><path d="M0 534L38.2 532.7C76.3 531.3 152.7 528.7 228.8 526.2C305 523.7 381 521.3 457.2 523.8C533.3 526.3 609.7 533.7 685.8 536C762 538.3 838 535.7 914.2 534.2C990.3 532.7 1066.7 532.3 1142.8 532C1219 531.7 1295 531.3 1371.2 527.7C1447.3 524 1523.7 517 1561.8 513.5L1600 510L1600 601L1561.8 601C1523.7 601 1447.3 601 1371.2 601C1295 601 1219 601 1142.8 601C1066.7 601 990.3 601 914.2 601C838 601 762 601 685.8 601C609.7 601 533.3 601 457.2 601C381 601 305 601 228.8 601C152.7 601 76.3 601 38.2 601L0 601Z" fill="#4ad338"></path><path d="M0 562L38.2 560.7C76.3 559.3 152.7 556.7 228.8 558.3C305 560 381 566 457.2 568.7C533.3 571.3 609.7 570.7 685.8 566.8C762 563 838 556 914.2 554.3C990.3 552.7 1066.7 556.3 1142.8 558.8C1219 561.3 1295 562.7 1371.2 561.7C1447.3 560.7 1523.7 557.3 1561.8 555.7L1600 554L1600 601L1561.8 601C1523.7 601 1447.3 601 1371.2 601C1295 601 1219 601 1142.8 601C1066.7 601 990.3 601 914.2 601C838 601 762 601 685.8 601C609.7 601 533.3 601 457.2 601C381 601 305 601 228.8 601C152.7 601 76.3 601 38.2 601L0 601Z" fill="#33c724"></path></svg>