<svg id="visual" viewBox="0 0 900 450" width="900" height="450" xmlns="http://www.w3.org/2000/svg" xmlns:xlink="http://www.w3.org/1999/xlink" version="1.1"><rect x="0" y="0" width="900" height="450" fill="#00330e"></rect><path d="M0 314L129 314L129 358L257 358L257 310L386 310L386 258L514 258L514 333L643 333L643 250L771 250L771 294L900 294L900 312L900 451L900 451L771 451L771 451L643 451L643 451L514 451L514 451L386 451L386 451L257 451L257 451L129 451L129 451L0 451Z" fill="#00ff2e" stroke-linecap="square" stroke-linejoin="miter"></path></svg>