<svg id="visual" viewBox="0 0 1200 600" width="1200" height="600" xmlns="http://www.w3.org/2000/svg" xmlns:xlink="http://www.w3.org/1999/xlink" version="1.1"><rect x="0" y="0" width="1200" height="600" fill="#40f634"></rect><path d="M0 472L13.3 473.7C26.7 475.3 53.3 478.7 80 490.3C106.7 502 133.3 522 160 529.3C186.7 536.7 213.3 531.3 240 518.5C266.7 505.7 293.3 485.3 320 474.7C346.7 464 373.3 463 400 459.8C426.7 456.7 453.3 451.3 480 452.3C506.7 453.3 533.3 460.7 560 461.3C586.7 462 613.3 456 640 449C666.7 442 693.3 434 720 450C746.7 466 773.3 506 800 507.7C826.7 509.3 853.3 472.7 880 456C906.7 439.3 933.3 442.7 960 442.3C986.7 442 1013.3 438 1040 443.2C1066.7 448.3 1093.3 462.7 1120 472C1146.7 481.3 1173.3 485.7 1186.7 487.8L1200 490L1200 601L1186.7 601C1173.3 601 1146.7 601 1120 601C1093.3 601 1066.7 601 1040 601C1013.3 601 986.7 601 960 601C933.3 601 906.7 601 880 601C853.3 601 826.7 601 800 601C773.3 601 746.7 601 720 601C693.3 601 666.7 601 640 601C613.3 601 586.7 601 560 601C533.3 601 506.7 601 480 601C453.3 601 426.7 601 400 601C373.3 601 346.7 601 320 601C293.3 601 266.7 601 240 601C213.3 601 186.7 601 160 601C133.3 601 106.7 601 80 601C53.3 601 26.7 601 13.3 601L0 601Z" fill="#0c6411" stroke-linecap="round" stroke-linejoin="miter"></path></svg>