<?xml version="1.0" encoding="UTF-8"?>
<svg version="1.1" xmlns="http://www.w3.org/2000/svg" width="135" height="34">
<path d="M0 0 C9.24 0 18.48 0 28 0 C26.72544855 8.28458444 25.38300191 16.22519569 23.375 24.3125 C22.59125 27.509375 21.8075 30.70625 21 34 C12.09 34 3.18 34 -6 34 C-4.875 22.75 -4.875 22.75 -3.80859375 17.7734375 C-3.60806396 16.82388184 -3.40753418 15.87432617 -3.20092773 14.89599609 C-2.94899658 13.73406738 -2.69706543 12.57213867 -2.4375 11.375 C-1.633125 7.62125 -0.82875 3.8675 0 0 Z " fill="#50B962" transform="translate(6,0)"/>
<path d="M0 0 C1.74965358 -0.05429959 3.49979787 -0.09292823 5.25 -0.125 C6.22453125 -0.14820313 7.1990625 -0.17140625 8.203125 -0.1953125 C11.05408886 0.00377716 12.63933478 0.42079637 15 2 C15.9375 4.3125 15.9375 4.3125 16 7 C14.625 9.6875 14.625 9.6875 13 12 C12.67 12.66 12.34 13.32 12 14 C12.89163577 16.11683841 12.89163577 16.11683841 14 18 C14.27714844 16.78441406 14.55429688 15.56882812 14.83984375 14.31640625 C15.20553898 12.73172693 15.57143475 11.14709388 15.9375 9.5625 C16.11990234 8.76005859 16.30230469 7.95761719 16.49023438 7.13085938 C17.88671875 1.11328125 17.88671875 1.11328125 19 0 C20.78837622 -0.12524459 22.58228214 -0.17573676 24.375 -0.1875 C25.35210937 -0.20167969 26.32921875 -0.21585937 27.3359375 -0.23046875 C30 0 30 0 33 2 C33.6875 4.625 33.6875 4.625 34 7 C35.32 4.69 36.64 2.38 38 0 C40.64 0 43.28 0 46 0 C46.66 6.6 47.32 13.2 48 20 C45.69 20 43.38 20 41 20 C41 18.68 41 17.36 41 16 C39.35 16 37.7 16 36 16 C35.67 17.32 35.34 18.64 35 20 C32.69 20 30.38 20 28 20 C28.66 18.02 29.32 16.04 30 14 C29.01 14 28.02 14 27 14 C25.33333333 14 23.66666667 14 22 14 C21.67 15.98 21.34 17.96 21 20 C16.38 20 11.76 20 7 20 C6.34 18.35 5.68 16.7 5 15 C4.01 17.475 4.01 17.475 3 20 C1.02 20 -0.96 20 -3 20 C-2.45136137 13.2142064 -1.45732062 6.64990964 0 0 Z M6 5 C5.67 6.32 5.34 7.64 5 9 C6.32 8.67 7.64 8.34 9 8 C9 7.01 9 6.02 9 5 C8.01 5 7.02 5 6 5 Z M24 5 C23.67 6.32 23.34 7.64 23 9 C24.32 8.67 25.64 8.34 27 8 C27 7.01 27 6.02 27 5 C26.01 5 25.02 5 24 5 Z M40 8 C39.67 8.99 39.34 9.98 39 11 C39.66 11 40.32 11 41 11 C40.67 10.01 40.34 9.02 40 8 Z " fill="#6D6E71" transform="translate(70,7)"/>
<path d="M0 0 C1.98 0 3.96 0 6 0 C6.66 2.64 7.32 5.28 8 8 C9.32 5.36 10.64 2.72 12 0 C14.31 0 16.62 0 19 0 C17.56347895 4.91441412 15.45840385 9.00238358 12.875 13.375 C12.50246094 14.01566406 12.12992188 14.65632813 11.74609375 15.31640625 C10.83565998 16.88048477 9.91851809 18.44065534 9 20 C6.36 20 3.72 20 1 20 C0.67 13.4 0.34 6.8 0 0 Z " fill="#6D6F71" transform="translate(34,7)"/>
<path d="M0 0 C4.62 0 9.24 0 14 0 C13.67 1.65 13.34 3.3 13 5 C10.36 5 7.72 5 5 5 C5 5.66 5 6.32 5 7 C6.98 7 8.96 7 11 7 C10.67 8.65 10.34 10.3 10 12 C9.030625 12.12375 8.06125 12.2475 7.0625 12.375 C6.051875 12.58125 5.04125 12.7875 4 13 C3.67 13.66 3.34 14.32 3 15 C5.64 15 8.28 15 11 15 C10.67 16.65 10.34 18.3 10 20 C5.38 20 0.76 20 -4 20 C-2 6.14285714 -2 6.14285714 0 0 Z " fill="#6D6E71" transform="translate(54,7)"/>
<path d="M0 0 C0.66 0 1.32 0 2 0 C2 1.65 2 3.3 2 5 C2.66 5 3.32 5 4 5 C4.33 3.35 4.66 1.7 5 0 C5.66 0.33 6.32 0.66 7 1 C6.67 2.32 6.34 3.64 6 5 C6.99 5 7.98 5 9 5 C8.67 6.32 8.34 7.64 8 9 C5.36 9 2.72 9 0 9 C0 9.99 0 10.98 0 12 C1.98 12 3.96 12 6 12 C6 13.32 6 14.64 6 16 C3.69 16 1.38 16 -1 16 C-1 16.99 -1 17.98 -1 19 C1.31 19 3.62 19 6 19 C5.67 20.32 5.34 21.64 5 23 C4.01 23 3.02 23 2 23 C2 24.65 2 26.3 2 28 C1.01 28 0.02 28 -1 28 C-1 26.68 -1 25.36 -1 24 C-1.66 24 -2.32 24 -3 24 C-3 25.32 -3 26.64 -3 28 C-3.66 28 -4.32 28 -5 28 C-5 26.68 -5 25.36 -5 24 C-5.66 24 -6.32 24 -7 24 C-6.48446121 17.50149789 -5.53332291 11.33773468 -4 5 C-2.68 5 -1.36 5 0 5 C0 3.35 0 1.7 0 0 Z " fill="#EAF6EC" transform="translate(16,3)"/>
<path d="M0 0 C1.98 0 3.96 0 6 0 C6.66 1.32 7.32 2.64 8 4 C8.37125 3.34 8.7425 2.68 9.125 2 C11 0 11 0 14.1875 -0.25 C15.115625 -0.1675 16.04375 -0.085 17 0 C16.37857942 3.39863354 15.0816774 5.53304554 13.0625 8.3125 C10.38437054 12.19161318 8.97702128 15.408 8 20 C5.69 20 3.38 20 1 20 C1.20625 18.824375 1.4125 17.64875 1.625 16.4375 C2.17170189 12.19868805 1.30766053 9.076824 0 5 C-0.125 2.0625 -0.125 2.0625 0 0 Z " fill="#6D6F71" transform="translate(118,7)"/>
</svg>
