<?xml version="1.0" encoding="UTF-8"?>
<svg version="1.1" xmlns="http://www.w3.org/2000/svg" width="400" height="138">
<path d="M0 0 C132 0 264 0 400 0 C400 45.54 400 91.08 400 138 C268 138 136 138 0 138 C0 92.46 0 46.92 0 0 Z " fill="#0CCF8C" transform="translate(0,0)"/>
<path d="M0 0 C39.82060474 0 39.82060474 0 48.52734375 8.25390625 C53.46657069 14.11023103 54.73358074 20.46088726 54.4453125 28.00390625 C53.35060297 35.36918878 49.76953267 40.99296362 44.13671875 45.74609375 C37.38859183 49.70614629 31.65370655 50.41493746 24 50.1875 C21.03 50.125625 18.06 50.06375 15 50 C15 58.58 15 67.16 15 76 C10.05 76 5.1 76 0 76 C0 50.92 0 25.84 0 0 Z " fill="#EFFCF9" transform="translate(20,23)"/>
<path d="M0 0 C6.35403034 2.48318427 11.25068907 7.23035243 14.63671875 13.0390625 C16.69921875 18.5390625 16.69921875 18.5390625 16.69921875 32.5390625 C3.82921875 32.5390625 -9.04078125 32.5390625 -22.30078125 32.5390625 C-21.31078125 34.5190625 -20.32078125 36.4990625 -19.30078125 38.5390625 C-19.30078125 39.1990625 -19.30078125 39.8590625 -19.30078125 40.5390625 C-18.51703125 40.8484375 -17.73328125 41.1578125 -16.92578125 41.4765625 C-14.30078125 42.5390625 -14.30078125 42.5390625 -12.30078125 43.5390625 C-6.70173228 43.93197822 -2.60653878 43.1994355 2.64453125 41.2734375 C4.96489678 40.44410533 7.26818088 39.93116538 9.69921875 39.5390625 C10.56578991 40.63352088 11.41714599 41.74004031 12.26171875 42.8515625 C12.73738281 43.46644531 13.21304688 44.08132812 13.703125 44.71484375 C14.03183594 45.31683594 14.36054688 45.91882813 14.69921875 46.5390625 C13.40239921 50.42952111 12.00899543 50.76995673 8.44921875 52.6640625 C7.4953125 53.18226562 6.54140625 53.70046875 5.55859375 54.234375 C-1.50158143 57.45582105 -10.37453941 57.78374461 -17.8671875 55.890625 C-25.20884095 52.90289125 -31.40729047 48.13660708 -34.73828125 40.8515625 C-37.80207784 33.11650655 -38.9469891 24.7499203 -35.73828125 16.8515625 C-31.93114322 9.37134059 -26.79599921 4.21318895 -19.30078125 0.5390625 C-14.26728485 -1.9776857 -5.48203201 -1.09826787 0 0 Z " fill="#F0FDFA" transform="translate(355.30078125,43.4609375)"/>
<path d="M0 0 C4.82230371 3.8359234 8.39431283 9.08052347 9.34875488 15.25683594 C9.45915976 17.69162809 9.45096328 20.09476068 9.390625 22.53125 C9.38496521 23.40777222 9.37930542 24.28429443 9.37347412 25.18737793 C9.35126636 27.95883188 9.3011016 30.72894365 9.25 33.5 C9.22991474 35.39060619 9.21166754 37.28123286 9.1953125 39.171875 C9.15145307 43.78175906 9.08253652 48.3906528 9 53 C4.71 53 0.42 53 -4 53 C-4.495 50.03 -4.495 50.03 -5 47 C-5.886875 47.78375 -6.77375 48.5675 -7.6875 49.375 C-13.45258946 54.0967554 -18.67991587 54.71306756 -26 54 C-30.33897758 53.05061687 -33.21640696 51.78359304 -36.375 48.625 C-39.96873892 42.81972944 -40.88370685 37.79690576 -40 31 C-37.80162708 26.60325416 -35.14431084 23.63728872 -31 21 C-25.02934958 19.161874 -19.71902396 18.74332685 -13.5 18.875 C-12.26636719 18.88853516 -12.26636719 18.88853516 -11.0078125 18.90234375 C-9.00507917 18.92563135 -7.00249846 18.96149041 -5 19 C-6.60116504 14.20213944 -6.60116504 14.20213944 -9.85546875 10.5859375 C-14.78651925 9.23865594 -20.42117424 8.9483512 -25.203125 10.8984375 C-26.84130105 11.86895356 -28.42608857 12.92840073 -30 14 C-30.66 14 -31.32 14 -32 14 C-33.65 10.7 -35.3 7.4 -37 4 C-25.83482793 -3.31511273 -12.48048414 -6.70248223 0 0 Z " fill="#F5FDFB" transform="translate(115,46)"/>
<path d="M0 0 C4.95 0 9.9 0 15 0 C18.24809352 7.6127192 21.32471637 15.28178009 24.3125 23 C24.67408203 23.91998779 25.03566406 24.83997559 25.40820312 25.7878418 C25.9119043 27.09942261 25.9119043 27.09942261 26.42578125 28.4375 C26.72911377 29.21996094 27.03244629 30.00242187 27.3449707 30.80859375 C28 33 28 33 28 37 C28.66 37 29.32 37 30 37 C30.10521973 36.45400146 30.21043945 35.90800293 30.31884766 35.34545898 C31.48820269 29.65836208 33.1973552 24.43639359 35.375 19.0625 C35.68445557 18.28342285 35.99391113 17.5043457 36.31274414 16.70166016 C37.20240992 14.46527823 38.10047296 12.23242945 39 10 C39.66708984 8.32357422 39.66708984 8.32357422 40.34765625 6.61328125 C41.2259501 4.4065286 42.11178329 2.20277744 43 0 C47.95 0 52.9 0 58 0 C55.40524768 8.24695755 52.15437374 16.19659729 48.875 24.1875 C48.29150087 25.61321341 47.70816909 27.03899532 47.125 28.46484375 C46.24779333 30.60948169 45.37034413 32.75401663 44.49163818 34.89804077 C42.74652191 39.15937265 41.02376573 43.42881824 39.3203125 47.70703125 C38.92344238 48.69743408 38.52657227 49.68783691 38.11767578 50.70825195 C37.39929082 52.50264515 36.68626754 54.29919928 35.97998047 56.09838867 C32.6065418 64.47315606 29.02861835 71.07929016 21.32421875 76.08984375 C18.03329441 77.37855866 14.85271171 77.25079169 11.375 77.1875 C10.694375 77.18685547 10.01375 77.18621094 9.3125 77.18554688 C4.28161154 77.14080577 4.28161154 77.14080577 2 76 C2.14168137 74.56208484 2.28851043 73.1246763 2.4375 71.6875 C2.51871094 70.88699219 2.59992188 70.08648437 2.68359375 69.26171875 C3 67 3 67 4 64 C4.81984375 63.98582031 5.6396875 63.97164062 6.484375 63.95703125 C13.08020975 63.81325431 13.08020975 63.81325431 18.75 60.875 C20.8095606 56.13801061 20.49756926 51.86209312 18.70239258 47.09106445 C18.11250309 45.6764272 17.5091722 44.26734131 16.89453125 42.86328125 C16.57344894 42.10258835 16.25236664 41.34189545 15.92155457 40.55815125 C14.89684919 38.13778337 13.85513914 35.72518871 12.8125 33.3125 C12.13100492 31.71208053 11.45065609 30.11117245 10.77148438 28.50976562 C8.58440852 23.36123589 6.38955722 18.21597854 4.1708374 13.08099365 C3.44652425 11.40363388 2.72886943 9.7234033 2.01171875 8.04296875 C1.61815186 7.12926514 1.22458496 6.21556152 0.8190918 5.27416992 C0 3 0 3 0 0 Z " fill="#F3FDFB" transform="translate(128,44)"/>
<path d="M0 0 C4.95 0 9.9 0 15 0 C18.24641135 7.60877661 21.29620819 15.27352343 24.25 23 C24.77980469 24.37998169 24.77980469 24.37998169 25.3203125 25.7878418 C25.65289062 26.662229 25.98546875 27.53661621 26.328125 28.4375 C26.6262207 29.21996094 26.92431641 30.00242187 27.23144531 30.80859375 C27.95002402 32.85750178 28.5123364 34.88558694 29 37 C32.56311284 28.67885662 35.78623955 20.27992547 38.8125 11.75 C39.21919922 10.61175781 39.62589844 9.47351563 40.04492188 8.30078125 C41.03275291 5.53485435 42.01678405 2.76757081 43 0 C48.28 0 53.56 0 59 0 C30.92306076 70.7514022 30.92306076 70.7514022 20.57421875 76.30078125 C17.25149203 77.20331248 14.25176027 77.22736498 10.8125 77.1875 C9.58144531 77.18105469 8.35039062 77.17460938 7.08203125 77.16796875 C4 77 4 77 2 76 C2.14168137 74.56208484 2.28851043 73.1246763 2.4375 71.6875 C2.51871094 70.88699219 2.59992188 70.08648437 2.68359375 69.26171875 C3 67 3 67 4 64 C4.67546875 64.02320312 5.3509375 64.04640625 6.046875 64.0703125 C6.93890625 64.08835937 7.8309375 64.10640625 8.75 64.125 C9.63171875 64.14820312 10.5134375 64.17140625 11.421875 64.1953125 C14.17237865 63.98694101 15.70124757 63.49896767 18 62 C20.0951983 58.82107845 21.09602303 56.96023033 20.71313477 53.13134766 C20.015378 50.06752423 19.0774645 47.50337119 17.77734375 44.6484375 C17.32472168 43.64135742 16.87209961 42.63427734 16.40576172 41.59667969 C15.92123535 40.53352539 15.43670898 39.47037109 14.9375 38.375 C11.28433343 30.21725782 7.70252113 22.04656733 4.375 13.75 C4.04491943 12.9357959 3.71483887 12.1215918 3.37475586 11.28271484 C2.92241577 10.14503662 2.92241577 10.14503662 2.4609375 8.984375 C2.20103027 8.33178711 1.94112305 7.67919922 1.67333984 7.00683594 C1 5 1 5 0 0 Z " fill="#F5FDFB" transform="translate(212,44)"/>
<path d="M0 0 C1.68222656 -0.00386719 1.68222656 -0.00386719 3.3984375 -0.0078125 C6.26764622 0.11029052 8.83708229 0.46717672 11.625 1.125 C11.07167098 5.15639714 10.44409701 9.13964564 9.625 13.125 C8.86574219 13.09019531 8.10648437 13.05539063 7.32421875 13.01953125 C6.33035156 12.99246094 5.33648437 12.96539062 4.3125 12.9375 C3.32636719 12.90269531 2.34023438 12.86789063 1.32421875 12.83203125 C-1.36138579 12.91177942 -1.36138579 12.91177942 -3.1875 14.34375 C-4.66749097 16.56373645 -4.87052292 18.16321627 -5.0625 20.8125 C-5.165625 22.235625 -5.26875 23.65875 -5.375 25.125 C-0.755 25.125 3.865 25.125 8.625 25.125 C8.625 29.085 8.625 33.045 8.625 37.125 C4.005 37.125 -0.615 37.125 -5.375 37.125 C-5.36714478 39.02560181 -5.36714478 39.02560181 -5.35913086 40.96459961 C-5.34108486 45.6478607 -5.32956947 50.33111871 -5.32006836 55.0144043 C-5.31502722 57.04468298 -5.30819443 59.07495802 -5.29956055 61.10522461 C-5.28748533 64.01677347 -5.28176966 66.9282745 -5.27734375 69.83984375 C-5.27218246 70.7533812 -5.26702118 71.66691864 -5.26170349 72.60813904 C-5.26150832 74.78075427 -5.31288195 76.95327296 -5.375 79.125 C-5.705 79.455 -6.035 79.785 -6.375 80.125 C-10.995 80.125 -15.615 80.125 -20.375 80.125 C-20.375 65.935 -20.375 51.745 -20.375 37.125 C-23.675 37.125 -26.975 37.125 -30.375 37.125 C-30.375 33.165 -30.375 29.205 -30.375 25.125 C-26.745 25.125 -23.115 25.125 -19.375 25.125 C-19.42140625 24.25617187 -19.4678125 23.38734375 -19.515625 22.4921875 C-19.8109181 13.06390053 -19.8109181 13.06390053 -17.75 8.625 C-12.20010248 2.78300261 -8.29733333 -0.01898703 0 0 Z " fill="#FCFDFD" transform="translate(305.375,18.875)"/>
<path d="M0 0 C4.62 0 9.24 0 14 0 C14 26.07 14 52.14 14 79 C9.38 79 4.76 79 0 79 C0 52.93 0 26.86 0 0 Z " fill="#FBFDFD" transform="translate(192,20)"/>
<path d="M0 0 C2.701875 -0.0825 5.40375 -0.165 8.1875 -0.25 C9.02949951 -0.28641602 9.87149902 -0.32283203 10.73901367 -0.36035156 C14.67603679 -0.41837972 16.56872297 -0.27286024 19.98828125 1.890625 C23.51047356 5.58379752 23.32859749 8.58460751 23.29296875 13.515625 C22.88537873 16.97198834 21.53723498 18.68663869 19 21 C15.69428083 22.65285959 12.004622 22.1005118 8.375 22.0625 C5.61125 22.041875 2.8475 22.02125 0 22 C0 14.74 0 7.48 0 0 Z " fill="#0ECD8B" transform="translate(35,37)"/>
<path d="M0 0 C4.62 0 9.24 0 14 0 C14 26.07 14 52.14 14 79 C9.38 79 4.76 79 0 79 C0 52.93 0 26.86 0 0 Z M3 3 C1.87064796 6.38805612 1.87298907 8.96300782 1.87060547 12.53515625 C1.86885315 13.19401825 1.86710083 13.85288025 1.86529541 14.53170776 C1.86089573 16.70866534 1.86380826 18.88554161 1.8671875 21.0625 C1.86651392 22.57560237 1.86554344 24.08870464 1.86428833 25.60180664 C1.86281391 28.77263418 1.86495771 31.94343355 1.86962891 35.11425781 C1.87532604 39.17977643 1.87204568 43.24522904 1.86605644 47.31074524 C1.86244394 50.43510435 1.8635926 53.55944779 1.86618423 56.68380737 C1.86685159 58.18293262 1.86603174 59.68205928 1.86370468 61.18118286 C1.86116688 63.27577485 1.86503468 65.37025974 1.87060547 67.46484375 C1.87140106 68.657146 1.87219666 69.84944824 1.87301636 71.07788086 C1.86872718 74.06408569 1.86872718 74.06408569 3 77 C5.97 77 8.94 77 12 77 C12 52.25 12 27.5 12 2 C8.72724974 2 6.153368 2.29925156 3 3 Z " fill="#D5FEF7" transform="translate(192,20)"/>
<path d="M0 0 C12.87 0 25.74 0 39 0 C39 0.66 39 1.32 39 2 C38.21753906 2.04898438 37.43507813 2.09796875 36.62890625 2.1484375 C35.11103516 2.26058594 35.11103516 2.26058594 33.5625 2.375 C32.55316406 2.44460937 31.54382813 2.51421875 30.50390625 2.5859375 C29.67761719 2.72257812 28.85132813 2.85921875 28 3 C27.67 3.66 27.34 4.32 27 5 C28.98 5 30.96 5 33 5 C33.495 7.475 33.495 7.475 34 10 C33.34 9.67 32.68 9.34 32 9 C32 8.34 32 7.68 32 7 C31.40832031 7.27714844 30.81664062 7.55429688 30.20703125 7.83984375 C23.25721856 11.02564696 15.66869644 14.07363846 8.03515625 11.28125 C4.10031029 9.21815952 1.77129788 7.06356574 0 3 C0 2.01 0 1.02 0 0 Z " fill="#20C78D" transform="translate(333,76)"/>
<path d="M0 0 C0.69287109 0.01804687 1.38574219 0.03609375 2.09960938 0.0546875 C3.79617664 0.10148936 5.49202476 0.17322376 7.1875 0.25 C7.46875 6.8984375 7.46875 6.8984375 4.9375 10.0625 C0.21975954 13.81524809 -2.63007193 14.91240301 -8.8125 14.25 C-11.25 12.625 -11.25 12.625 -12.8125 10.25 C-13.375 7.25 -13.375 7.25 -12.8125 4.25 C-8.88229983 0.07978761 -5.47068425 -0.27222544 0 0 Z " fill="#20C78C" transform="translate(101.8125,74.75)"/>
<path d="M0 0 C0.33 0 0.66 0 1 0 C1 24.75 1 49.5 1 75 C5.95 75 10.9 75 16 75 C16 66.42 16 57.84 16 49 C20.4240625 48.87625 20.4240625 48.87625 24.9375 48.75 C32.20436941 48.46277683 37.53533923 47.5261786 44 44 C44.99 44.495 44.99 44.495 46 45 C42.92080442 48.80371218 38.52965091 50.72999184 33.74243164 51.2409668 C31.34231869 51.29377374 28.96191638 51.2629047 26.5625 51.1875 C25.32209961 51.16719727 25.32209961 51.16719727 24.05664062 51.14648438 C22.0374736 51.11146992 20.01864682 51.05767562 18 51 C18.01047363 51.68102783 18.02094727 52.36205566 18.03173828 53.0637207 C18.07328878 56.14660966 18.09932311 59.22943971 18.125 62.3125 C18.14175781 63.38435547 18.15851562 64.45621094 18.17578125 65.56054688 C18.18222656 66.58857422 18.18867187 67.61660156 18.1953125 68.67578125 C18.20578613 69.62364502 18.21625977 70.57150879 18.22705078 71.5480957 C18 74 18 74 16 77 C13.38944406 77.24890658 11.03905078 77.3272977 8.4375 77.25 C7.39045898 77.24226563 7.39045898 77.24226563 6.32226562 77.234375 C1.1541718 77.1541718 1.1541718 77.1541718 0 76 C-0.09494733 73.62699131 -0.12559319 71.28321297 -0.11352539 68.90991211 C-0.11367142 68.16849472 -0.11381744 67.42707733 -0.1139679 66.66319275 C-0.11326865 64.20121379 -0.10547574 61.73930957 -0.09765625 59.27734375 C-0.09579211 57.57483461 -0.09436819 55.87232493 -0.09336853 54.16981506 C-0.08954302 49.68006927 -0.07971247 45.19035562 -0.06866455 40.70062256 C-0.05845113 36.12268509 -0.05387106 31.54474244 -0.04882812 26.96679688 C-0.03809022 17.97785043 -0.02101341 8.98892788 0 0 Z " fill="#32C693" transform="translate(19,24)"/>
<path d="M0 0 C3.375 1.5625 3.375 1.5625 6 4 C6.66 6.31 7.32 8.62 8 11 C-0.25 11 -8.5 11 -17 11 C-15.04976556 5.14929667 -14.70585269 4.17645056 -10 1 C-6.7779951 -0.61100245 -3.49363854 -0.45456264 0 0 Z " fill="#19C58C" transform="translate(350,54)"/>
<path d="M0 0 C0.66 0 1.32 0 2 0 C2 13.53 2 27.06 2 41 C5.63 41 9.26 41 13 41 C13 27.47 13 13.94 13 0 C13.66 0 14.32 0 15 0 C15.02464574 5.96313166 15.042834 11.92623395 15.05493164 17.8894043 C15.05997278 19.91968298 15.06680557 21.94995802 15.07543945 23.98022461 C15.08751467 26.89177347 15.09323034 29.8032745 15.09765625 32.71484375 C15.10281754 33.6283812 15.10797882 34.54191864 15.11329651 35.48313904 C15.11349168 37.65575427 15.06211805 39.82827296 15 42 C14.505 42.495 14.505 42.495 14 43 C9.38 43 4.76 43 0 43 C0 28.81 0 14.62 0 0 Z " fill="#B8F6E6" transform="translate(285,56)"/>
<path d="M0 0 C1.68222656 -0.00386719 1.68222656 -0.00386719 3.3984375 -0.0078125 C6.26764622 0.11029052 8.83708229 0.46717672 11.625 1.125 C11.07049838 5.16494039 10.42544424 9.12277881 9.625 13.125 C5.335 13.125 1.045 13.125 -3.375 13.125 C-3.045 12.465 -2.715 11.805 -2.375 11.125 C1.255 11.125 4.885 11.125 8.625 11.125 C8.625 8.485 8.625 5.845 8.625 3.125 C-0.34610812 2.49854101 -0.34610812 2.49854101 -8.875 4.6875 C-9.7 5.491875 -10.525 6.29625 -11.375 7.125 C-11.91769531 7.58777344 -12.46039063 8.05054688 -13.01953125 8.52734375 C-16.89722952 12.24157933 -17.74198035 15.08482176 -18.0625 20.4375 C-18.06636719 21.46488281 -18.07023437 22.49226563 -18.07421875 23.55078125 C-18.17347656 24.40027344 -18.27273438 25.24976562 -18.375 26.125 C-22.0191774 28.5544516 -24.08741272 28.28679575 -28.375 28.125 C-28.375 30.435 -28.375 32.745 -28.375 35.125 C-25.405 35.455 -22.435 35.785 -19.375 36.125 C-19.375 36.455 -19.375 36.785 -19.375 37.125 C-23.005 37.125 -26.635 37.125 -30.375 37.125 C-30.375 33.165 -30.375 29.205 -30.375 25.125 C-26.745 25.125 -23.115 25.125 -19.375 25.125 C-19.42140625 24.25617187 -19.4678125 23.38734375 -19.515625 22.4921875 C-19.8109181 13.06390053 -19.8109181 13.06390053 -17.75 8.625 C-12.20010248 2.78300261 -8.29733333 -0.01898703 0 0 Z " fill="#DAFEF7" transform="translate(305.375,18.875)"/>
<path d="M0 0 C0.66 0 1.32 0 2 0 C2 26.07 2 52.14 2 79 C6.29 79 10.58 79 15 79 C15 79.33 15 79.66 15 80 C12.68756208 80.02685412 10.3750373 80.04632841 8.0625 80.0625 C6.77472656 80.07410156 5.48695313 80.08570312 4.16015625 80.09765625 C1 80 1 80 0 79 C-1.13200678 71.42508496 -1.14782303 63.75465017 -1.1328125 56.11328125 C-1.13376923 55.01259811 -1.13472595 53.91191498 -1.13571167 52.77787781 C-1.13638793 50.46267642 -1.13457261 48.14747307 -1.13037109 45.83227539 C-1.12504091 42.33931075 -1.13032184 38.8464762 -1.13671875 35.35351562 C-1.13987675 23.5290323 -0.9813212 11.78814887 0 0 Z " fill="#30C592" transform="translate(190,20)"/>
<path d="M0 0 C0.66 0 1.32 0 2 0 C3.20970211 15.90020346 2.94599635 31.72258663 2.60510254 47.65478516 C2.53314519 51.08811979 2.46910332 54.52160239 2.40429688 57.95507812 C2.27663396 64.63687377 2.14138967 71.31848145 2 78 C1.34 78 0.68 78 0 78 C0 52.26 0 26.52 0 0 Z " fill="#2DC495" transform="translate(206,20)"/>
<path d="M0 0 C4.95 0 9.9 0 15 0 C15.66 1.98 16.32 3.96 17 6 C16.41798828 5.26330078 16.41798828 5.26330078 15.82421875 4.51171875 C13.38788304 2.49274247 11.93069328 2.69101195 8.8125 2.8125 C7.91144531 2.83957031 7.01039063 2.86664063 6.08203125 2.89453125 C5.39496094 2.92933594 4.70789063 2.96414062 4 3 C6.51227604 12.23210383 10.13406706 20.83293642 14.03125 29.5546875 C14.38678955 30.35068359 14.7423291 31.14667969 15.10864258 31.96679688 C15.8134012 33.53994443 16.5214322 35.11163119 17.2331543 36.68164062 C22.30442742 47.9538952 22.30442742 47.9538952 22.125 53.875 C22.10695312 54.65617187 22.08890625 55.43734375 22.0703125 56.2421875 C22.04710937 56.82226562 22.02390625 57.40234375 22 58 C21.67 58 21.34 58 21 58 C20.90855713 57.4028418 20.81711426 56.80568359 20.72290039 56.19042969 C19.53706596 49.36774816 17.31314081 43.52511752 14.4375 37.25 C13.5410273 35.2404483 12.64654942 33.2300057 11.75390625 31.21875 C11.29902832 30.1978125 10.84415039 29.176875 10.37548828 28.125 C8.13330449 23.03093673 5.99364609 17.89644629 3.875 12.75 C3.48497803 11.81575195 3.09495605 10.88150391 2.69311523 9.91894531 C2.33805908 9.05366211 1.98300293 8.18837891 1.6171875 7.296875 C1.14708252 6.15750488 1.14708252 6.15750488 0.66748047 4.99511719 C0 3 0 3 0 0 Z " fill="#D1FDF4" transform="translate(128,44)"/>
<path d="M0 0 C2.69958293 0.67489573 4.51280712 1.33491762 6.1875 3.62109375 C8.41089162 7.55290025 10.10555307 10.56706681 10.23706055 15.05078125 C10.27666145 16.30217896 10.27666145 16.30217896 10.31706238 17.57885742 C10.35154228 18.9320105 10.35154228 18.9320105 10.38671875 20.3125 C10.41224319 21.23716064 10.43776764 22.16182129 10.46406555 23.11450195 C10.51611055 25.07138565 10.56553307 27.02834057 10.61254883 28.98535156 C10.68720253 31.98803537 10.77781375 34.98997048 10.86914062 37.9921875 C10.91764818 39.89060017 10.96520625 41.7890374 11.01171875 43.6875 C11.04077805 44.58960205 11.06983734 45.4917041 11.09977722 46.42114258 C11.12519341 47.67254028 11.12519341 47.67254028 11.15112305 48.94921875 C11.17031296 49.68487061 11.18950287 50.42052246 11.20927429 51.1784668 C11 53 11 53 9 55 C6.06640625 55.30078125 6.06640625 55.30078125 2.5625 55.3125 C0.83193359 55.33763672 0.83193359 55.33763672 -0.93359375 55.36328125 C-4 55 -4 55 -5.91015625 53.48046875 C-6.26980469 52.99191406 -6.62945312 52.50335938 -7 52 C-7.7425 52.350625 -8.485 52.70125 -9.25 53.0625 C-12.1322726 54.04509293 -13.21176345 54.0326802 -16 53 C-15.113125 52.5875 -14.22625 52.175 -13.3125 51.75 C-10.18687634 50.09872712 -7.68094386 48.28668741 -5 46 C-4 47 -4 47 -4 53 C0.29 53 4.58 53 9 53 C8.98045691 47.48578166 8.92836853 41.973132 8.84741211 36.45947266 C8.82435896 34.58781503 8.80986646 32.71603002 8.80444336 30.84423828 C9.04436712 14.81313989 9.04436712 14.81313989 1.33520508 1.25634766 C0.8945874 0.84175293 0.45396973 0.4271582 0 0 Z " fill="#23C28D" transform="translate(115,46)"/>
<path d="M0 0 C3.21101195 4.81651792 3.13148042 8.27902151 3.09765625 13.9453125 C3.0962413 14.8303244 3.09482635 15.7153363 3.09336853 16.62716675 C3.0877614 19.45981191 3.07520771 22.29237864 3.0625 25.125 C3.05748592 27.04296761 3.05292285 28.96093646 3.04882812 30.87890625 C3.03778966 35.58596782 3.02052025 40.2929706 3 45 C-1.29 45 -5.58 45 -10 45 C-10.33 43.02 -10.66 41.04 -11 39 C-11.66 39 -12.32 39 -13 39 C-13 38.34 -13 37.68 -13 37 C-11.68 37.33 -10.36 37.66 -9 38 C-9 39.65 -9 41.3 -9 43 C-5.7 43 -2.4 43 1 43 C0.67 28.81 0.34 14.62 0 0 Z " fill="#B1F5E5" transform="translate(121,54)"/>
<path d="M0 0 C1.5 1.375 1.5 1.375 3 3 C3 3.66 3 4.32 3 5 C3.52207031 4.6390625 4.04414062 4.278125 4.58203125 3.90625 C10.7245077 0.03358534 15.7836966 -1.06695742 23 0 C26.74030185 1.60298651 27.73158465 2.59737698 30 6 C30 7.32 30 8.64 30 10 C28.20755859 10.05607422 28.20755859 10.05607422 26.37890625 10.11328125 C15.94846033 10.51441009 6.90100664 10.97028583 -2 17 C-0.99284277 14.38905436 -0.35522481 13.20876085 2.09375 11.76953125 C3.28484375 11.29580078 3.28484375 11.29580078 4.5 10.8125 C5.69109375 10.32716797 5.69109375 10.32716797 6.90625 9.83203125 C7.5971875 9.55746094 8.288125 9.28289062 9 9 C9.66 8.67 10.32 8.34 11 8 C13.71760108 7.92818179 16.40859388 7.90700494 19.125 7.9375 C19.87910156 7.94201172 20.63320312 7.94652344 21.41015625 7.95117188 C23.27347127 7.96296501 25.13674555 7.98090058 27 8 C26.21869929 5.50447516 26.21869929 5.50447516 25 3 C20.51927003 1.50642334 16.24026704 1.07229448 11.83984375 2.89453125 C10.49541752 3.60569503 9.16641454 4.34725746 7.859375 5.125 C6 6 6 6 2 6 C2 5.34 2 4.68 2 4 C1.34 4 0.68 4 0 4 C0 2.68 0 1.36 0 0 Z " fill="#44BF96" transform="translate(80,55)"/>
<path d="M0 0 C0.99 0.33 1.98 0.66 3 1 C2.67 1.66 2.34 2.32 2 3 C1.77532169 4.53668865 1.59203195 6.07968054 1.4375 7.625 C1.2209375 9.790625 1.2209375 9.790625 1 12 C5.62 12 10.24 12 15 12 C15 15.96 15 19.92 15 24 C10.05 24 5.1 24 0 24 C0.33 23.34 0.66 22.68 1 22 C4.96 22 8.92 22 13 22 C12.67 19.69 12.34 17.38 12 15 C11.07316406 14.95101562 10.14632813 14.90203125 9.19140625 14.8515625 C7.99386719 14.77679688 6.79632813 14.70203125 5.5625 14.625 C4.36753906 14.55539063 3.17257812 14.48578125 1.94140625 14.4140625 C0.97074219 14.27742188 0.00007813 14.14078125 -1 14 C-2.58493084 10.83013832 -2.2940042 7.45967739 -2 4 C-1 1.5 -1 1.5 0 0 Z " fill="#D8FDF6" transform="translate(299,32)"/>
<path d="M0 0 C0.33 0 0.66 0 1 0 C0.85966889 1.97956441 0.7125877 3.95865141 0.5625 5.9375 C0.48128906 7.03964844 0.40007812 8.14179688 0.31640625 9.27734375 C0 12 0 12 -1 13 C-3.34987262 13.23527773 -5.70556039 13.41386417 -8.0625 13.5625 C-9.99802734 13.68818359 -9.99802734 13.68818359 -11.97265625 13.81640625 C-12.97167969 13.87699219 -13.97070312 13.93757813 -15 14 C-15 15.98 -15 17.96 -15 20 C-11.14854957 21.92572521 -6.19956748 21.04883218 -2 21 C-2 25.95 -2 30.9 -2 36 C-2.33 36 -2.66 36 -3 36 C-3 32.04 -3 28.08 -3 24 C-7.62 24 -12.24 24 -17 24 C-17.48106904 15.82182628 -17.48106904 15.82182628 -15.5 12.4375 C-11.79830892 10.30902763 -9.2506301 10.6626484 -5 11 C-4.01 11.33 -3.02 11.66 -2 12 C-1.855625 10.7625 -1.71125 9.525 -1.5625 8.25 C-1.21311498 5.43495501 -0.79620634 2.7298503 0 0 Z " fill="#38C495" transform="translate(317,20)"/>
<path d="M0 0 C0.99 0.33 1.98 0.66 3 1 C3 3.97 3 6.94 3 10 C-0.63 10 -4.26 10 -8 10 C-8 13.96 -8 17.92 -8 22 C-8.66 22 -9.32 22 -10 22 C-10 18.7 -10 15.4 -10 12 C-10.66 12 -11.32 12 -12 12 C-12.33 13.65 -12.66 15.3 -13 17 C-13.66 17 -14.32 17 -15 17 C-14.34 15.02 -13.68 13.04 -13 11 C-17.95 10.67 -22.9 10.34 -28 10 C-28.33 10.66 -28.66 11.32 -29 12 C-29 11.01 -29 10.02 -29 9 C-26.04160645 8.97310551 -23.08345573 8.95321259 -20.125 8.9375 C-18.86236328 8.92493164 -18.86236328 8.92493164 -17.57421875 8.91210938 C-16.76855469 8.90888672 -15.96289062 8.90566406 -15.1328125 8.90234375 C-14.01737061 8.89448853 -14.01737061 8.89448853 -12.87939453 8.88647461 C-11 9 -11 9 -9 10 C-9 9.34 -9 8.68 -9 8 C-6.03 8 -3.06 8 0 8 C0 5.36 0 2.72 0 0 Z " fill="#3DCC9A" transform="translate(283,34)"/>
<path d="M0 0 C5.94 0 11.88 0 18 0 C21.19903553 6.93124364 24.29396674 13.8606782 27 21 C27.31324219 21.81984375 27.62648437 22.6396875 27.94921875 23.484375 C28.23410156 24.27328125 28.51898438 25.0621875 28.8125 25.875 C29.06644531 26.57367188 29.32039063 27.27234375 29.58203125 27.9921875 C30.0683633 30.32839941 29.63695617 31.7306035 29 34 C27.45096715 29.92517987 25.90272915 25.85005891 24.35522461 21.7746582 C23.82875006 20.38850762 23.30205901 19.00243924 22.77514648 17.61645508 C22.0174955 15.62342596 21.26062547 13.6301018 20.50390625 11.63671875 C20.04830322 10.43748779 19.5927002 9.23825684 19.12329102 8.00268555 C18.37964912 6.01484559 17.67115654 4.01346961 17 2 C12.05 1.67 7.1 1.34 2 1 C2.66 3.31 3.32 5.62 4 8 C3.01 7.67 2.02 7.34 1 7 C0.67 4.69 0.34 2.38 0 0 Z " fill="#34C294" transform="translate(126,43)"/>
<path d="M0 0 C2.701875 -0.0825 5.40375 -0.165 8.1875 -0.25 C9.02949951 -0.28641602 9.87149902 -0.32283203 10.73901367 -0.36035156 C14.67603679 -0.41837972 16.56872297 -0.27286024 19.98828125 1.890625 C23.02951904 5.0794957 23.11765661 6.82278442 23.0625 11.125 C23.05347656 12.03507812 23.04445313 12.94515625 23.03515625 13.8828125 C23.02355469 14.58148438 23.01195313 15.28015625 23 16 C22.67 16 22.34 16 22 16 C21.8046875 13.98177083 21.609375 11.96354167 21.4140625 9.9453125 C21.13625251 7.77331755 21.13625251 7.77331755 19 6 C19 5.01 19 4.02 19 3 C13.06 2.34 7.12 1.68 1 1 C1 7.6 1 14.2 1 21 C6.28 21 11.56 21 17 21 C17 21.33 17 21.66 17 22 C11.39 22 5.78 22 0 22 C0 14.74 0 7.48 0 0 Z " fill="#2BBE8D" transform="translate(35,37)"/>
<path d="M0 0 C11.55 0 23.1 0 35 0 C35 0.66 35 1.32 35 2 C36.98 2 38.96 2 41 2 C41 2.99 41 3.98 41 5 C39.845 4.67854004 38.69 4.35708008 37.5 4.02587891 C33.33682849 2.98840138 29.28083874 2.65859824 25 2.5859375 C23.91827515 2.55688828 23.91827515 2.55688828 22.81469727 2.5272522 C20.54324647 2.46814737 18.27174305 2.42135225 16 2.375 C14.44659421 2.33675634 12.89320817 2.29770104 11.33984375 2.2578125 C7.56005901 2.16250434 3.78017532 2.07822368 0 2 C0 1.34 0 0.68 0 0 Z " fill="#2EC28E" transform="translate(20,21)"/>
<path d="M0 0 C4.95 0 9.9 0 15 0 C15.99 2.97 16.98 5.94 18 9 C15 7 15 7 14.1328125 4.953125 C13.14451579 2.75984544 13.14451579 2.75984544 10.6171875 2.171875 C9.25980469 1.96304688 9.25980469 1.96304688 7.875 1.75 C6.96492187 1.60046875 6.05484375 1.4509375 5.1171875 1.296875 C4.06917969 1.14992187 4.06917969 1.14992187 3 1 C4.1411625 4.31412795 5.28870745 7.62600993 6.4375 10.9375 C6.76298828 11.88302734 7.08847656 12.82855469 7.42382812 13.80273438 C7.73642578 14.70185547 8.04902344 15.60097656 8.37109375 16.52734375 C8.8031311 17.77632446 8.8031311 17.77632446 9.24389648 19.05053711 C9.83880993 20.97333091 9.83880993 20.97333091 11 22 C11.04063832 23.66617115 11.042721 25.33388095 11 27 C8.86155304 24.86155304 8.20217443 23.38559163 7.08984375 20.60546875 C6.73986328 19.73212891 6.38988281 18.85878906 6.02929688 17.95898438 C5.66900391 17.04439453 5.30871094 16.12980469 4.9375 15.1875 C4.57333984 14.28451172 4.20917969 13.38152344 3.83398438 12.45117188 C2.15349728 8.22355093 0.90053034 4.50265168 0 0 Z " fill="#D2FDF3" transform="translate(212,44)"/>
<path d="M0 0 C1.68222656 -0.00386719 1.68222656 -0.00386719 3.3984375 -0.0078125 C6.26764622 0.11029052 8.83708229 0.46717672 11.625 1.125 C11.07049838 5.16494039 10.42544424 9.12277881 9.625 13.125 C5.335 13.125 1.045 13.125 -3.375 13.125 C-3.045 12.465 -2.715 11.805 -2.375 11.125 C1.255 11.125 4.885 11.125 8.625 11.125 C8.625 8.485 8.625 5.845 8.625 3.125 C0.96893782 2.93144787 -6.03758031 2.7770257 -13.375 5.125 C-9.06114257 0.51363516 -6.22795821 -0.01425162 0 0 Z " fill="#C8FDF1" transform="translate(305.375,18.875)"/>
<path d="M0 0 C0 0.66 0 1.32 0 2 C-0.99 2.495 -0.99 2.495 -2 3 C-1.67 5.31 -1.34 7.62 -1 10 C3.29888613 8.48134786 3.29888613 8.48134786 7 6 C9.10029986 5.847677 11.20687139 5.77810628 13.3125 5.75 C14.46363281 5.72421875 15.61476563 5.6984375 16.80078125 5.671875 C20.21723798 6.02228082 21.53441038 6.68660727 24 9 C23.67 9.66 23.34 10.32 23 11 C22.44957031 10.67773438 21.89914063 10.35546875 21.33203125 10.0234375 C17.06462926 8.15064132 12.5634529 8.44568228 8 9 C5.35896615 10.07701735 3.37787541 11.381021 1 13 C0.34 13 -0.32 13 -1 13 C-2.65 9.7 -4.3 6.4 -6 3 C-2 0 -2 0 0 0 Z " fill="#D5FDF3" transform="translate(84,47)"/>
<path d="M0 0 C2.475 2.475 2.475 2.475 5 5 C3.70318046 8.89045861 2.30977668 9.23089423 -1.25 11.125 C-2.68085938 11.90230469 -2.68085938 11.90230469 -4.140625 12.6953125 C-8.92190564 14.87693509 -13.21658803 15.15675258 -18.4375 15.1875 C-19.52933594 15.20167969 -20.62117188 15.21585938 -21.74609375 15.23046875 C-25.13335377 14.99055478 -27.83858571 14.20639188 -31 13 C-28.0751367 12.15808218 -25.49258344 11.88180687 -22.453125 11.90234375 C-21.60878906 11.90556641 -20.76445312 11.90878906 -19.89453125 11.91210938 C-19.02183594 11.92048828 -18.14914062 11.92886719 -17.25 11.9375 C-16.36183594 11.94201172 -15.47367187 11.94652344 -14.55859375 11.95117188 C-12.37232671 11.962926 -10.18619821 11.97935751 -8 12 C-7.67 11.34 -7.34 10.68 -7 10 C-5.68 10 -4.36 10 -3 10 C-3 9.34 -3 8.68 -3 8 C-1.02 7.67 0.96 7.34 3 7 C2.505 6.21625 2.01 5.4325 1.5 4.625 C0 2 0 2 0 0 Z " fill="#BDF9E9" transform="translate(365,85)"/>
<path d="M0 0 C3.3 0 6.6 0 10 0 C10 13.86 10 27.72 10 42 C9.67 42 9.34 42 9 42 C8.67 28.8 8.34 15.6 8 2 C5.36 2 2.72 2 0 2 C0 1.34 0 0.68 0 0 Z " fill="#33BD8D" transform="translate(275,56)"/>
<path d="M0 0 C1.86756738 6.18043882 -0.96398072 11.07238523 -3.859375 16.5390625 C-5.88566247 20.9108471 -7.27262911 25.54127623 -8.75390625 30.12109375 C-9.16511719 31.07113281 -9.57632813 32.02117187 -10 33 C-11.485 33.495 -11.485 33.495 -13 34 C-10.87555401 26.18300191 -7.9836327 18.82105482 -4.8125 11.375 C-4.34908203 10.27542969 -3.88566406 9.17585938 -3.40820312 8.04296875 C-2.27669493 5.36001117 -1.14056098 2.67911856 0 0 Z " fill="#35C798" transform="translate(185,46)"/>
<path d="M0 0 C5.28 0 10.56 0 16 0 C14.68 3.3 13.36 6.6 12 10 C11 6 11 6 12 2 C8.7 2 5.4 2 2 2 C2 2.99 2 3.98 2 5 C1.34 5 0.68 5 0 5 C-0.66 7.97 -1.32 10.94 -2 14 C-2.66 13.67 -3.32 13.34 -4 13 C-3.52343588 11.20763933 -3.04366502 9.41613103 -2.5625 7.625 C-2.29566406 6.62726562 -2.02882812 5.62953125 -1.75390625 4.6015625 C-1 2 -1 2 0 0 Z " fill="#CAFCF2" transform="translate(255,44)"/>
<path d="M0 0 C4.95 0 9.9 0 15 0 C12.91923185 6.45038127 10.57778144 12.73219641 8 19 C7.67 19 7.34 19 7 19 C7.33 16.36 7.66 13.72 8 11 C8.66 11 9.32 11 10 11 C10 9.35 10 7.7 10 6 C10.66 6 11.32 6 12 6 C12 4.68 12 3.36 12 2 C10.20739868 2.05995322 8.41574205 2.1487241 6.625 2.25 C5.62726563 2.29640625 4.62953125 2.3428125 3.6015625 2.390625 C0.8473523 2.72160885 0.8473523 2.72160885 -0.3515625 5.046875 C-0.56554687 5.69140625 -0.77953125 6.3359375 -1 7 C-1.33 6.34 -1.66 5.68 -2 5 C-1.34 3.35 -0.68 1.7 0 0 Z " fill="#CEFDF3" transform="translate(171,44)"/>
<path d="M0 0 C2.69058746 3.42172536 4 5.52964711 4 10 C2.68363964 12.94023114 1.11469896 15.56577236 -1 18 C-5.47254497 19.49084832 -9.52745503 19.49084832 -14 18 C-14 17.34 -14 16.68 -14 16 C-12.98679688 16.06960937 -12.98679688 16.06960937 -11.953125 16.140625 C-11.06109375 16.17671875 -10.1690625 16.2128125 -9.25 16.25 C-8.36828125 16.29640625 -7.4865625 16.3428125 -6.578125 16.390625 C-3.88983582 16.17929933 -3.88983582 16.17929933 -1.6875 14.375 C0.49363528 11.30525404 0.41201817 9.47641787 0.25 5.75 C0.21390625 4.67234375 0.1778125 3.5946875 0.140625 2.484375 C0.09421875 1.66453125 0.0478125 0.8446875 0 0 Z " fill="#43C99F" transform="translate(230,90)"/>
<path d="M0 0 C0.98774449 3.44714679 0.87577254 5.17164417 -0.375 8.5625 C-0.65085937 9.32691406 -0.92671875 10.09132813 -1.2109375 10.87890625 C-1.47132813 11.57886719 -1.73171875 12.27882813 -2 13 C-2.33 13.99 -2.66 14.98 -3 16 C-3.66 16 -4.32 16 -5 16 C-5.0825 16.804375 -5.165 17.60875 -5.25 18.4375 C-6.34832922 23.65456377 -8.62538175 28.2507635 -11 33 C-11.66 33 -12.32 33 -13 33 C-10.66737643 25.63014946 -7.8202139 18.55561321 -4.8125 11.4375 C-4.11737305 9.78137695 -4.11737305 9.78137695 -3.40820312 8.09179688 C-2.27506147 5.39328426 -1.1389372 2.69607042 0 0 Z " fill="#34C497" transform="translate(262,64)"/>
<path d="M0 0 C0.66 0.33 1.32 0.66 2 1 C-0.63839206 4.25919019 -4.0521987 5.83931087 -8 7 C-11.32549302 7.34080175 -14.59924611 7.28650525 -17.9375 7.1875 C-18.81212891 7.17396484 -19.68675781 7.16042969 -20.58789062 7.14648438 C-22.72553086 7.11144109 -24.86284984 7.05764541 -27 7 C-27.33 6.34 -27.66 5.68 -28 5 C-26.09927734 4.96132812 -26.09927734 4.96132812 -24.16015625 4.921875 C-15.19802787 4.64983738 -8.01948949 4.37426699 0 0 Z " fill="#37C698" transform="translate(63,68)"/>
<path d="M0 0 C0.66 0 1.32 0 2 0 C12.14596711 19.16922475 12.14596711 19.16922475 11 27 C10 29.375 10 29.375 9 31 C8.34 31 7.68 31 7 31 C7.45375 29.824375 7.9075 28.64875 8.375 27.4375 C9.92356509 20.69857192 6.60486983 14.83660521 3.84228516 8.83886719 C2.50395304 5.91703603 1.25810619 2.95711968 0 0 Z " fill="#D1FCF4" transform="translate(224,75)"/>
<path d="M0 0 C1.23363281 0.01353516 1.23363281 0.01353516 2.4921875 0.02734375 C4.49492083 0.05063135 6.49750154 0.08649041 8.5 0.125 C8.5 0.785 8.5 1.445 8.5 2.125 C-3.875 2.62 -3.875 2.62 -16.5 3.125 C-16.83 4.115 -17.16 5.105 -17.5 6.125 C-18.82 5.795 -20.14 5.465 -21.5 5.125 C-15.56681633 -0.3137517 -7.5807873 -0.16050527 0 0 Z " fill="#D2FEF5" transform="translate(101.5,64.875)"/>
<path d="M0 0 C-1 2 -1 2 -3.30859375 2.875 C-6.35189438 4.14709083 -7.8365839 5.5926474 -10.0625 8 C-12.56196412 10.69249204 -14.60592864 12.54863764 -18 14 C-16.24505588 7.56520489 -11.24747415 3.38306102 -5.75 0 C-3 -1 -3 -1 0 0 Z " fill="#D9FDF7" transform="translate(339,45)"/>
<path d="M0 0 C1.15408492 3.46225476 0.8865484 3.90921093 -0.546875 7.08984375 C-0.8975 7.87423828 -1.248125 8.65863281 -1.609375 9.46679688 C-2.17398438 10.68979492 -2.17398438 10.68979492 -2.75 11.9375 C-3.29140625 13.15469727 -3.29140625 13.15469727 -3.84375 14.39648438 C-5.60115538 18.27742125 -7.34880522 21.64065465 -10 25 C-10 23.35 -10 21.7 -10 20 C-9.34 20 -8.68 20 -8 20 C-8.12375 18.948125 -8.12375 18.948125 -8.25 17.875 C-7.91765135 14.05299049 -6.16887918 12.12573764 -4 9 C-3.29835358 7.01200182 -2.62627128 5.01301483 -2 3 C-1.34 2.01 -0.68 1.02 0 0 Z " fill="#D0FDF4" transform="translate(251,88)"/>
<path d="M0 0 C1 2 1 2 1 5 C6.94 5.33 12.88 5.66 19 6 C19 4.02 19 2.04 19 0 C21 2 21 2 22 7 C13.75 7 5.5 7 -3 7 C-1 1 -1 1 0 0 Z " fill="#3BB98E" transform="translate(336,58)"/>
<path d="M0 0 C0.99 0.33 1.98 0.66 3 1 C1.76302083 2.62760417 0.52604167 4.25520833 -0.7109375 5.8828125 C-3.85046145 11.03924274 -4.27396037 15.96241934 -4.125 21.875 C-4.11597656 22.56335938 -4.10695313 23.25171875 -4.09765625 23.9609375 C-4.07432513 25.64077838 -4.03846326 27.32043746 -4 29 C-6.60005397 26.39994603 -6.26105409 24.57014239 -6.2734375 21.02539062 C-6.26570313 20.25388672 -6.25796875 19.48238281 -6.25 18.6875 C-6.26160156 17.54764648 -6.26160156 17.54764648 -6.2734375 16.38476562 C-6.25868877 12.14081895 -5.94741433 8.87164516 -4 5 C-3.34 5 -2.68 5 -2 5 C-1.34 3.35 -0.68 1.7 0 0 Z " fill="#2FC393" transform="translate(323,51)"/>
<path d="M0 0 C0.80179688 0.00451172 1.60359375 0.00902344 2.4296875 0.01367188 C4.41149006 0.02546832 6.39325433 0.04340395 8.375 0.0625 C8.375 0.3925 8.375 0.7225 8.375 1.0625 C7.32441406 1.17207031 6.27382812 1.28164062 5.19140625 1.39453125 C-4.43112178 2.45707842 -13.40805319 3.49618119 -21.625 9.0625 C-20.61784277 6.45155436 -19.98022481 5.27126085 -17.53125 3.83203125 C-16.7371875 3.51621094 -15.943125 3.20039062 -15.125 2.875 C-13.93390625 2.38966797 -13.93390625 2.38966797 -12.71875 1.89453125 C-12.0278125 1.61996094 -11.336875 1.34539062 -10.625 1.0625 C-7.31505287 -0.59247356 -3.63377 -0.03834335 0 0 Z " fill="#30C392" transform="translate(99.625,62.9375)"/>
<path d="M0 0 C0.66 0 1.32 0 2 0 C4.52594205 3.78891308 4.33125499 6.86133252 4.3125 11.25 C4.32861328 11.98863281 4.34472656 12.72726563 4.36132812 13.48828125 C4.36594097 18.71924671 3.34440155 22.32356841 1 27 C0.34 27 -0.32 27 -1 27 C-1 27.66 -1 28.32 -1 29 C-1.66 28.67 -2.32 28.34 -3 28 C-2.45859375 27.12601563 -2.45859375 27.12601563 -1.90625 26.234375 C2.6153309 18.24624875 3.36898043 11.1336766 1 2.25 C0.67 1.5075 0.34 0.765 0 0 Z " fill="#1FC08B" transform="translate(71,36)"/>
<path d="M0 0 C0.66 0 1.32 0 2 0 C1.29807915 4.93321834 -0.63530775 9.25974682 -2.5625 13.8125 C-2.89185547 14.60076172 -3.22121094 15.38902344 -3.56054688 16.20117188 C-4.36958906 18.13583796 -5.18423852 20.06815753 -6 22 C-6.33 22 -6.66 22 -7 22 C-6.505 17.545 -6.505 17.545 -6 13 C-5.34 13 -4.68 13 -4 13 C-3.86722656 12.43796875 -3.73445312 11.8759375 -3.59765625 11.296875 C-2.97562889 8.90633847 -2.22884959 6.58964225 -1.4375 4.25 C-1.16808594 3.45078125 -0.89867187 2.6515625 -0.62109375 1.828125 C-0.41613281 1.22484375 -0.21117187 0.6215625 0 0 Z " fill="#CDFDF3" transform="translate(259,66)"/>
<path d="M0 0 C4.62 0 9.24 0 14 0 C14 0.66 14 1.32 14 2 C13.22914063 2.12117188 12.45828125 2.24234375 11.6640625 2.3671875 C10.66117187 2.53476562 9.65828125 2.70234375 8.625 2.875 C7.12839844 3.11863281 7.12839844 3.11863281 5.6015625 3.3671875 C2.8574885 3.7958802 2.8574885 3.7958802 1 6 C0.67 4.02 0.34 2.04 0 0 Z " fill="#37C89B" transform="translate(300,56)"/>
<path d="M0 0 C4.95 0 9.9 0 15 0 C15.99 2.97 16.98 5.94 18 9 C15 7 15 7 14.1640625 4.953125 C13.12813701 2.72407006 13.12813701 2.72407006 10.3984375 2.171875 C8.90183594 1.96304688 8.90183594 1.96304688 7.375 1.75 C5.87066406 1.52570312 5.87066406 1.52570312 4.3359375 1.296875 C3.56507813 1.19890625 2.79421875 1.1009375 2 1 C1.67 2.32 1.34 3.64 1 5 C0.67 3.35 0.34 1.7 0 0 Z " fill="#C0FCEE" transform="translate(212,44)"/>
<path d="M0 0 C1.32 0.33 2.64 0.66 4 1 C-2.85697492 5.15027429 -2.85697492 5.15027429 -7.875 5.1875 C-9.17050781 5.20876953 -9.17050781 5.20876953 -10.4921875 5.23046875 C-13 5 -13 5 -17 3 C-8.585 2.505 -8.585 2.505 0 2 C0 1.34 0 0.68 0 0 Z " fill="#C9FBF1" transform="translate(102,95)"/>
<path d="M0 0 C0.66 0 1.32 0 2 0 C2.16435547 1.30324219 2.16435547 1.30324219 2.33203125 2.6328125 C3.45696426 11.22856045 3.45696426 11.22856045 7 19 C3.76715959 17.9967047 2.984825 16.97398572 1.25 14 C-0.53602076 9.43357934 -0.26215889 4.82566553 0 0 Z " fill="#2CC28F" transform="translate(73,77)"/>
<path d="M0 0 C0.33 0 0.66 0 1 0 C1.04898438 0.89203125 1.09796875 1.7840625 1.1484375 2.703125 C1.22320312 3.87359375 1.29796875 5.0440625 1.375 6.25 C1.44460937 7.41015625 1.51421875 8.5703125 1.5859375 9.765625 C1.96969088 12.76324572 2.66489216 14.37622285 4 17 C3.67 17.99 3.34 18.98 3 20 C-0.64651238 13.84651037 -1.81108303 9.15348642 -1 2 C-0.67 1.34 -0.34 0.68 0 0 Z " fill="#CAFCF1" transform="translate(76,75)"/>
<path d="M0 0 C3.34881869 3.34881869 3.1599934 6.53491325 3.1875 11.0625 C3.20167969 12.12597656 3.21585937 13.18945312 3.23046875 14.28515625 C3 17 3 17 1 19 C0.67 12.73 0.34 6.46 0 0 Z " fill="#B3F5E4" transform="translate(71,37)"/>
<path d="M0 0 C0.66 0.33 1.32 0.66 2 1 C2 2.65 2 4.3 2 6 C-1.93905597 7.14889133 -5.93565958 7.52582695 -10 8 C-8 6 -8 6 -5.5625 4.5625 C-3.32531144 3.19836063 -1.74325592 1.92675654 0 0 Z " fill="#41C299" transform="translate(109,92)"/>
<path d="M0 0 C1.65 1.65 3.3 3.3 5 5 C3.77887968 8.66336097 2.13279518 9.35042014 -1.11328125 11.23046875 C-3 12 -3 12 -7 12 C-7 11.34 -7 10.68 -7 10 C-5.68 10 -4.36 10 -3 10 C-3 9.34 -3 8.68 -3 8 C-1.02 7.67 0.96 7.34 3 7 C2.505 6.21625 2.01 5.4325 1.5 4.625 C0 2 0 2 0 0 Z " fill="#CBFCF2" transform="translate(365,85)"/>
<path d="M0 0 C0 0.66 0 1.32 0 2 C-0.99 2.495 -0.99 2.495 -2 3 C-1.34414811 6.60992379 -1.34414811 6.60992379 0 10 C0.99 10.66 1.98 11.32 3 12 C1.68 12.33 0.36 12.66 -1 13 C-2.65 9.7 -4.3 6.4 -6 3 C-2 0 -2 0 0 0 Z " fill="#C1FBED" transform="translate(84,47)"/>
<path d="M0 0 C2.35082212 2.89642841 3.83519406 5.65356331 5.1875 9.125 C5.53167969 9.99382813 5.87585938 10.86265625 6.23046875 11.7578125 C7 14 7 14 7 16 C6.01 15.67 5.02 15.34 4 15 C2.83203125 12.63671875 2.83203125 12.63671875 1.8125 9.6875 C1.46832031 8.72199219 1.12414062 7.75648437 0.76953125 6.76171875 C0 4 0 4 0 0 Z " fill="#43C599" transform="translate(213,49)"/>
<path d="M0 0 C0.33 0 0.66 0 1 0 C1.45732667 5.71658336 0.52273754 8.48649253 -3 13 C-4 11 -4 11 -3.22265625 8.3984375 C-2.83980469 7.40070313 -2.45695313 6.40296875 -2.0625 5.375 C-1.68222656 4.37210938 -1.30195313 3.36921875 -0.91015625 2.3359375 C-0.60980469 1.56507812 -0.30945313 0.79421875 0 0 Z " fill="#D0FCF5" transform="translate(250,58)"/>
<path d="M0 0 C-0.33 0.99 -0.66 1.98 -1 3 C-7.27 3 -13.54 3 -20 3 C-20 2.67 -20 2.34 -20 2 C-18.86820313 1.93941406 -17.73640625 1.87882812 -16.5703125 1.81640625 C-15.08852855 1.73200083 -13.6067584 1.64735283 -12.125 1.5625 C-11.37863281 1.52318359 -10.63226563 1.48386719 -9.86328125 1.44335938 C-6.43744287 1.24274722 -3.2500626 0 0 0 Z " fill="#D5FEF7" transform="translate(54,58)"/>
<path d="M0 0 C1.08892712 2.83121051 0.96109941 4.16532751 0.25 7.1875 C-0.36875 8.5796875 -0.36875 8.5796875 -1 10 C-1.99 10.33 -2.98 10.66 -4 11 C-3.52269162 9.5410574 -3.04308958 8.08286504 -2.5625 6.625 C-2.29566406 5.81289063 -2.02882813 5.00078125 -1.75390625 4.1640625 C-1 2 -1 2 0 0 Z " fill="#3AC89B" transform="translate(267,52)"/>
<path d="M0 0 C1.25955231 3.77865693 0.48087189 5.03411786 -0.9375 8.6875 C-1.31777344 9.68136719 -1.69804687 10.67523438 -2.08984375 11.69921875 C-2.39019531 12.45847656 -2.69054687 13.21773437 -3 14 C-3.33 14 -3.66 14 -4 14 C-2.63636364 2.63636364 -2.63636364 2.63636364 0 0 Z " fill="#38C497" transform="translate(251,52)"/>
<path d="M0 0 C1.23593891 3.70781672 0.5678132 4.67510253 -0.9375 8.1875 C-1.31777344 9.08855469 -1.69804687 9.98960938 -2.08984375 10.91796875 C-2.54037109 11.94857422 -2.54037109 11.94857422 -3 13 C-3.33 13 -3.66 13 -4 13 C-3.85892253 11.54119891 -3.71197585 10.08296449 -3.5625 8.625 C-3.48128906 7.81289062 -3.40007812 7.00078125 -3.31640625 6.1640625 C-3 4 -3 4 -2 2 C-1.34 2 -0.68 2 0 2 C0 1.34 0 0.68 0 0 Z " fill="#CFFDF2" transform="translate(166,90)"/>
<path d="M0 0 C0.66 0 1.32 0 2 0 C1.33501617 4.38889325 -0.18757677 7.9811485 -2 12 C-2.33 12 -2.66 12 -3 12 C-3.125 9.125 -3.125 9.125 -3 6 C-2.34 5.34 -1.68 4.68 -1 4 C-0.3574765 1.93125966 -0.3574765 1.93125966 0 0 Z " fill="#CFFEF5" transform="translate(176,63)"/>
<path d="M0 0 C0.99 0.33 1.98 0.66 3 1 C3.765625 2.7421875 3.765625 2.7421875 4.25 4.875 C4.50523437 5.92300781 4.50523437 5.92300781 4.765625 6.9921875 C5 9 5 9 4 12 C2.68 8.04 1.36 4.08 0 0 Z " fill="#30C092" transform="translate(227,44)"/>
<path d="M0 0 C1.09898702 3.29696105 0.87124444 4.40494903 0.0625 7.6875 C-0.13214844 8.49574219 -0.32679688 9.30398437 -0.52734375 10.13671875 C-0.76130859 11.05904297 -0.76130859 11.05904297 -1 12 C-1.33 12 -1.66 12 -2 12 C-2.05395478 10.37536158 -2.09277195 8.75021459 -2.125 7.125 C-2.14820313 6.22007813 -2.17140625 5.31515625 -2.1953125 4.3828125 C-2 2 -2 2 0 0 Z " fill="#22C48B" transform="translate(215,108)"/>
<path d="M0 0 C3.63 1.98 7.26 3.96 11 6 C11 6.33 11 6.66 11 7 C8.37428995 7.38613383 6.6156121 7.38493778 4.33203125 5.95703125 C2.6875 4.625 2.6875 4.625 0 2 C0 1.34 0 0.68 0 0 Z " fill="#34C396" transform="translate(326,92)"/>
<path d="M0 0 C1.07349791 4.29399165 0.79682816 5.19495213 -1 9 C-1.66 9 -2.32 9 -3 9 C-3 9.66 -3 10.32 -3 11 C-3.66 10.67 -4.32 10.34 -5 10 C-3.35 6.7 -1.7 3.4 0 0 Z " fill="#32C496" transform="translate(73,54)"/>
<path d="M0 0 C0.33 0 0.66 0 1 0 C0.67 2.97 0.34 5.94 0 9 C-0.99 9.33 -1.98 9.66 -3 10 C-2.01 6.7 -1.02 3.4 0 0 Z " fill="#38C797" transform="translate(171,80)"/>
<path d="M0 0 C0.66 0 1.32 0 2 0 C1.01 3.3 0.02 6.6 -1 10 C-1.33 10 -1.66 10 -2 10 C-2.17942163 6.05272412 -2.09350689 3.4019487 0 0 Z " fill="#CFFEF3" transform="translate(169,80)"/>
<path d="M0 0 C0.75 1.625 0.75 1.625 1 4 C-0.9375 7.25 -0.9375 7.25 -3 10 C-4 7 -4 7 -3.22265625 5.17578125 C-2.1484375 3.45052083 -1.07421875 1.72526042 0 0 Z " fill="#36BD94" transform="translate(232,98)"/>
<path d="M0 0 C2.78211944 0.37596209 4.5879284 0.67318459 6.8125 2.4375 C8 4 8 4 8 6 C4.08597051 4.73058503 2.20927127 3.48832306 0 0 Z " fill="#CBFCF3" transform="translate(325,90)"/>
<path d="M0 0 C2.18975773 3.28463659 2.99806563 6.20696275 4 10 C3.01 9.67 2.02 9.34 1 9 C0.67 6.03 0.34 3.06 0 0 Z " fill="#44C79D" transform="translate(130,51)"/>
<path d="M0 0 C0.33 0.99 0.66 1.98 1 3 C-1 5 -1 5 -4.125 5.125 C-5.548125 5.063125 -5.548125 5.063125 -7 5 C-4.702779 3.25728062 -2.40133271 1.60088848 0 0 Z " fill="#D2FBF3" transform="translate(107,84)"/>
<path d="M0 0 C1.65 0 3.3 0 5 0 C5.33 1.65 5.66 3.3 6 5 C5.34 4.67 4.68 4.34 4 4 C4 3.34 4 2.68 4 2 C2.35 2.33 0.7 2.66 -1 3 C-0.67 2.01 -0.34 1.02 0 0 Z " fill="#33C091" transform="translate(361,81)"/>
</svg>
